<?xml version="1.0" encoding="utf-8" standalone="no"?>
<!DOCTYPE svg PUBLIC "-//W3C//DTD SVG 1.1//EN"
  "http://www.w3.org/Graphics/SVG/1.1/DTD/svg11.dtd">
<svg xmlns:xlink="http://www.w3.org/1999/xlink" width="460.8pt" height="345.6pt" viewBox="0 0 460.8 345.6" xmlns="http://www.w3.org/2000/svg" version="1.1">
 <metadata>
  <rdf:RDF xmlns:dc="http://purl.org/dc/elements/1.1/" xmlns:cc="http://creativecommons.org/ns#" xmlns:rdf="http://www.w3.org/1999/02/22-rdf-syntax-ns#">
   <cc:Work>
    <dc:type rdf:resource="http://purl.org/dc/dcmitype/StillImage"/>
    <dc:date>2023-06-23T16:55:39.018400</dc:date>
    <dc:format>image/svg+xml</dc:format>
    <dc:creator>
     <cc:Agent>
      <dc:title>Matplotlib v3.7.1, https://matplotlib.org/</dc:title>
     </cc:Agent>
    </dc:creator>
   </cc:Work>
  </rdf:RDF>
 </metadata>
 <defs>
  <style type="text/css">*{stroke-linejoin: round; stroke-linecap: butt}</style>
 </defs>
 <g id="figure_1">
  <g id="patch_1">
   <path d="M 0 345.6 
L 460.8 345.6 
L 460.8 0 
L 0 0 
z
" style="fill: #ffffff"/>
  </g>
  <g id="axes_1">
   <g id="patch_2">
    <path d="M 57.6 307.584 
L 414.72 307.584 
L 414.72 41.472 
L 57.6 41.472 
z
" style="fill: #ffffff"/>
   </g>
   <g id="matplotlib.axis_1">
    <g id="xtick_1">
     <g id="line2d_1">
      <defs>
       <path id="mc4cc6286a6" d="M 0 0 
L 0 3.5 
" style="stroke: #000000; stroke-width: 0.8"/>
      </defs>
      <g>
       <use xlink:href="#mc4cc6286a6" x="73.832727" y="307.584" style="stroke: #000000; stroke-width: 0.8"/>
      </g>
     </g>
     <g id="text_1">
      <!-- 0 -->
      <g transform="translate(70.651477 322.182437) scale(0.1 -0.1)">
       <defs>
        <path id="DejaVuSans-30" d="M 2034 4250 
Q 1547 4250 1301 3770 
Q 1056 3291 1056 2328 
Q 1056 1369 1301 889 
Q 1547 409 2034 409 
Q 2525 409 2770 889 
Q 3016 1369 3016 2328 
Q 3016 3291 2770 3770 
Q 2525 4250 2034 4250 
z
M 2034 4750 
Q 2819 4750 3233 4129 
Q 3647 3509 3647 2328 
Q 3647 1150 3233 529 
Q 2819 -91 2034 -91 
Q 1250 -91 836 529 
Q 422 1150 422 2328 
Q 422 3509 836 4129 
Q 1250 4750 2034 4750 
z
" transform="scale(0.015625)"/>
       </defs>
       <use xlink:href="#DejaVuSans-30"/>
      </g>
     </g>
    </g>
    <g id="xtick_2">
     <g id="line2d_2">
      <g>
       <use xlink:href="#mc4cc6286a6" x="139.419504" y="307.584" style="stroke: #000000; stroke-width: 0.8"/>
      </g>
     </g>
     <g id="text_2">
      <!-- 20 -->
      <g transform="translate(133.057004 322.182437) scale(0.1 -0.1)">
       <defs>
        <path id="DejaVuSans-32" d="M 1228 531 
L 3431 531 
L 3431 0 
L 469 0 
L 469 531 
Q 828 903 1448 1529 
Q 2069 2156 2228 2338 
Q 2531 2678 2651 2914 
Q 2772 3150 2772 3378 
Q 2772 3750 2511 3984 
Q 2250 4219 1831 4219 
Q 1534 4219 1204 4116 
Q 875 4013 500 3803 
L 500 4441 
Q 881 4594 1212 4672 
Q 1544 4750 1819 4750 
Q 2544 4750 2975 4387 
Q 3406 4025 3406 3419 
Q 3406 3131 3298 2873 
Q 3191 2616 2906 2266 
Q 2828 2175 2409 1742 
Q 1991 1309 1228 531 
z
" transform="scale(0.015625)"/>
       </defs>
       <use xlink:href="#DejaVuSans-32"/>
       <use xlink:href="#DejaVuSans-30" x="63.623047"/>
      </g>
     </g>
    </g>
    <g id="xtick_3">
     <g id="line2d_3">
      <g>
       <use xlink:href="#mc4cc6286a6" x="205.006281" y="307.584" style="stroke: #000000; stroke-width: 0.8"/>
      </g>
     </g>
     <g id="text_3">
      <!-- 40 -->
      <g transform="translate(198.643781 322.182437) scale(0.1 -0.1)">
       <defs>
        <path id="DejaVuSans-34" d="M 2419 4116 
L 825 1625 
L 2419 1625 
L 2419 4116 
z
M 2253 4666 
L 3047 4666 
L 3047 1625 
L 3713 1625 
L 3713 1100 
L 3047 1100 
L 3047 0 
L 2419 0 
L 2419 1100 
L 313 1100 
L 313 1709 
L 2253 4666 
z
" transform="scale(0.015625)"/>
       </defs>
       <use xlink:href="#DejaVuSans-34"/>
       <use xlink:href="#DejaVuSans-30" x="63.623047"/>
      </g>
     </g>
    </g>
    <g id="xtick_4">
     <g id="line2d_4">
      <g>
       <use xlink:href="#mc4cc6286a6" x="270.593058" y="307.584" style="stroke: #000000; stroke-width: 0.8"/>
      </g>
     </g>
     <g id="text_4">
      <!-- 60 -->
      <g transform="translate(264.230558 322.182437) scale(0.1 -0.1)">
       <defs>
        <path id="DejaVuSans-36" d="M 2113 2584 
Q 1688 2584 1439 2293 
Q 1191 2003 1191 1497 
Q 1191 994 1439 701 
Q 1688 409 2113 409 
Q 2538 409 2786 701 
Q 3034 994 3034 1497 
Q 3034 2003 2786 2293 
Q 2538 2584 2113 2584 
z
M 3366 4563 
L 3366 3988 
Q 3128 4100 2886 4159 
Q 2644 4219 2406 4219 
Q 1781 4219 1451 3797 
Q 1122 3375 1075 2522 
Q 1259 2794 1537 2939 
Q 1816 3084 2150 3084 
Q 2853 3084 3261 2657 
Q 3669 2231 3669 1497 
Q 3669 778 3244 343 
Q 2819 -91 2113 -91 
Q 1303 -91 875 529 
Q 447 1150 447 2328 
Q 447 3434 972 4092 
Q 1497 4750 2381 4750 
Q 2619 4750 2861 4703 
Q 3103 4656 3366 4563 
z
" transform="scale(0.015625)"/>
       </defs>
       <use xlink:href="#DejaVuSans-36"/>
       <use xlink:href="#DejaVuSans-30" x="63.623047"/>
      </g>
     </g>
    </g>
    <g id="xtick_5">
     <g id="line2d_5">
      <g>
       <use xlink:href="#mc4cc6286a6" x="336.179835" y="307.584" style="stroke: #000000; stroke-width: 0.8"/>
      </g>
     </g>
     <g id="text_5">
      <!-- 80 -->
      <g transform="translate(329.817335 322.182437) scale(0.1 -0.1)">
       <defs>
        <path id="DejaVuSans-38" d="M 2034 2216 
Q 1584 2216 1326 1975 
Q 1069 1734 1069 1313 
Q 1069 891 1326 650 
Q 1584 409 2034 409 
Q 2484 409 2743 651 
Q 3003 894 3003 1313 
Q 3003 1734 2745 1975 
Q 2488 2216 2034 2216 
z
M 1403 2484 
Q 997 2584 770 2862 
Q 544 3141 544 3541 
Q 544 4100 942 4425 
Q 1341 4750 2034 4750 
Q 2731 4750 3128 4425 
Q 3525 4100 3525 3541 
Q 3525 3141 3298 2862 
Q 3072 2584 2669 2484 
Q 3125 2378 3379 2068 
Q 3634 1759 3634 1313 
Q 3634 634 3220 271 
Q 2806 -91 2034 -91 
Q 1263 -91 848 271 
Q 434 634 434 1313 
Q 434 1759 690 2068 
Q 947 2378 1403 2484 
z
M 1172 3481 
Q 1172 3119 1398 2916 
Q 1625 2713 2034 2713 
Q 2441 2713 2670 2916 
Q 2900 3119 2900 3481 
Q 2900 3844 2670 4047 
Q 2441 4250 2034 4250 
Q 1625 4250 1398 4047 
Q 1172 3844 1172 3481 
z
" transform="scale(0.015625)"/>
       </defs>
       <use xlink:href="#DejaVuSans-38"/>
       <use xlink:href="#DejaVuSans-30" x="63.623047"/>
      </g>
     </g>
    </g>
    <g id="xtick_6">
     <g id="line2d_6">
      <g>
       <use xlink:href="#mc4cc6286a6" x="401.766612" y="307.584" style="stroke: #000000; stroke-width: 0.8"/>
      </g>
     </g>
     <g id="text_6">
      <!-- 100 -->
      <g transform="translate(392.222862 322.182437) scale(0.1 -0.1)">
       <defs>
        <path id="DejaVuSans-31" d="M 794 531 
L 1825 531 
L 1825 4091 
L 703 3866 
L 703 4441 
L 1819 4666 
L 2450 4666 
L 2450 531 
L 3481 531 
L 3481 0 
L 794 0 
L 794 531 
z
" transform="scale(0.015625)"/>
       </defs>
       <use xlink:href="#DejaVuSans-31"/>
       <use xlink:href="#DejaVuSans-30" x="63.623047"/>
       <use xlink:href="#DejaVuSans-30" x="127.246094"/>
      </g>
     </g>
    </g>
    <g id="text_7">
     <!-- Iteration -->
     <g transform="translate(214.951406 335.860562) scale(0.1 -0.1)">
      <defs>
       <path id="DejaVuSans-49" d="M 628 4666 
L 1259 4666 
L 1259 0 
L 628 0 
L 628 4666 
z
" transform="scale(0.015625)"/>
       <path id="DejaVuSans-74" d="M 1172 4494 
L 1172 3500 
L 2356 3500 
L 2356 3053 
L 1172 3053 
L 1172 1153 
Q 1172 725 1289 603 
Q 1406 481 1766 481 
L 2356 481 
L 2356 0 
L 1766 0 
Q 1100 0 847 248 
Q 594 497 594 1153 
L 594 3053 
L 172 3053 
L 172 3500 
L 594 3500 
L 594 4494 
L 1172 4494 
z
" transform="scale(0.015625)"/>
       <path id="DejaVuSans-65" d="M 3597 1894 
L 3597 1613 
L 953 1613 
Q 991 1019 1311 708 
Q 1631 397 2203 397 
Q 2534 397 2845 478 
Q 3156 559 3463 722 
L 3463 178 
Q 3153 47 2828 -22 
Q 2503 -91 2169 -91 
Q 1331 -91 842 396 
Q 353 884 353 1716 
Q 353 2575 817 3079 
Q 1281 3584 2069 3584 
Q 2775 3584 3186 3129 
Q 3597 2675 3597 1894 
z
M 3022 2063 
Q 3016 2534 2758 2815 
Q 2500 3097 2075 3097 
Q 1594 3097 1305 2825 
Q 1016 2553 972 2059 
L 3022 2063 
z
" transform="scale(0.015625)"/>
       <path id="DejaVuSans-72" d="M 2631 2963 
Q 2534 3019 2420 3045 
Q 2306 3072 2169 3072 
Q 1681 3072 1420 2755 
Q 1159 2438 1159 1844 
L 1159 0 
L 581 0 
L 581 3500 
L 1159 3500 
L 1159 2956 
Q 1341 3275 1631 3429 
Q 1922 3584 2338 3584 
Q 2397 3584 2469 3576 
Q 2541 3569 2628 3553 
L 2631 2963 
z
" transform="scale(0.015625)"/>
       <path id="DejaVuSans-61" d="M 2194 1759 
Q 1497 1759 1228 1600 
Q 959 1441 959 1056 
Q 959 750 1161 570 
Q 1363 391 1709 391 
Q 2188 391 2477 730 
Q 2766 1069 2766 1631 
L 2766 1759 
L 2194 1759 
z
M 3341 1997 
L 3341 0 
L 2766 0 
L 2766 531 
Q 2569 213 2275 61 
Q 1981 -91 1556 -91 
Q 1019 -91 701 211 
Q 384 513 384 1019 
Q 384 1609 779 1909 
Q 1175 2209 1959 2209 
L 2766 2209 
L 2766 2266 
Q 2766 2663 2505 2880 
Q 2244 3097 1772 3097 
Q 1472 3097 1187 3025 
Q 903 2953 641 2809 
L 641 3341 
Q 956 3463 1253 3523 
Q 1550 3584 1831 3584 
Q 2591 3584 2966 3190 
Q 3341 2797 3341 1997 
z
" transform="scale(0.015625)"/>
       <path id="DejaVuSans-69" d="M 603 3500 
L 1178 3500 
L 1178 0 
L 603 0 
L 603 3500 
z
M 603 4863 
L 1178 4863 
L 1178 4134 
L 603 4134 
L 603 4863 
z
" transform="scale(0.015625)"/>
       <path id="DejaVuSans-6f" d="M 1959 3097 
Q 1497 3097 1228 2736 
Q 959 2375 959 1747 
Q 959 1119 1226 758 
Q 1494 397 1959 397 
Q 2419 397 2687 759 
Q 2956 1122 2956 1747 
Q 2956 2369 2687 2733 
Q 2419 3097 1959 3097 
z
M 1959 3584 
Q 2709 3584 3137 3096 
Q 3566 2609 3566 1747 
Q 3566 888 3137 398 
Q 2709 -91 1959 -91 
Q 1206 -91 779 398 
Q 353 888 353 1747 
Q 353 2609 779 3096 
Q 1206 3584 1959 3584 
z
" transform="scale(0.015625)"/>
       <path id="DejaVuSans-6e" d="M 3513 2113 
L 3513 0 
L 2938 0 
L 2938 2094 
Q 2938 2591 2744 2837 
Q 2550 3084 2163 3084 
Q 1697 3084 1428 2787 
Q 1159 2491 1159 1978 
L 1159 0 
L 581 0 
L 581 3500 
L 1159 3500 
L 1159 2956 
Q 1366 3272 1645 3428 
Q 1925 3584 2291 3584 
Q 2894 3584 3203 3211 
Q 3513 2838 3513 2113 
z
" transform="scale(0.015625)"/>
      </defs>
      <use xlink:href="#DejaVuSans-49"/>
      <use xlink:href="#DejaVuSans-74" x="29.492188"/>
      <use xlink:href="#DejaVuSans-65" x="68.701172"/>
      <use xlink:href="#DejaVuSans-72" x="130.224609"/>
      <use xlink:href="#DejaVuSans-61" x="171.337891"/>
      <use xlink:href="#DejaVuSans-74" x="232.617188"/>
      <use xlink:href="#DejaVuSans-69" x="271.826172"/>
      <use xlink:href="#DejaVuSans-6f" x="299.609375"/>
      <use xlink:href="#DejaVuSans-6e" x="360.791016"/>
     </g>
    </g>
   </g>
   <g id="matplotlib.axis_2">
    <g id="ytick_1">
     <g id="line2d_7">
      <defs>
       <path id="m0ac55a8faf" d="M 0 0 
L -3.5 0 
" style="stroke: #000000; stroke-width: 0.8"/>
      </defs>
      <g>
       <use xlink:href="#m0ac55a8faf" x="57.6" y="282.708678" style="stroke: #000000; stroke-width: 0.8"/>
      </g>
     </g>
     <g id="text_8">
      <!-- 0.82 -->
      <g transform="translate(28.334375 286.507897) scale(0.1 -0.1)">
       <defs>
        <path id="DejaVuSans-2e" d="M 684 794 
L 1344 794 
L 1344 0 
L 684 0 
L 684 794 
z
" transform="scale(0.015625)"/>
       </defs>
       <use xlink:href="#DejaVuSans-30"/>
       <use xlink:href="#DejaVuSans-2e" x="63.623047"/>
       <use xlink:href="#DejaVuSans-38" x="95.410156"/>
       <use xlink:href="#DejaVuSans-32" x="159.033203"/>
      </g>
     </g>
    </g>
    <g id="ytick_2">
     <g id="line2d_8">
      <g>
       <use xlink:href="#m0ac55a8faf" x="57.6" y="250.045151" style="stroke: #000000; stroke-width: 0.8"/>
      </g>
     </g>
     <g id="text_9">
      <!-- 0.84 -->
      <g transform="translate(28.334375 253.844369) scale(0.1 -0.1)">
       <use xlink:href="#DejaVuSans-30"/>
       <use xlink:href="#DejaVuSans-2e" x="63.623047"/>
       <use xlink:href="#DejaVuSans-38" x="95.410156"/>
       <use xlink:href="#DejaVuSans-34" x="159.033203"/>
      </g>
     </g>
    </g>
    <g id="ytick_3">
     <g id="line2d_9">
      <g>
       <use xlink:href="#m0ac55a8faf" x="57.6" y="217.381623" style="stroke: #000000; stroke-width: 0.8"/>
      </g>
     </g>
     <g id="text_10">
      <!-- 0.86 -->
      <g transform="translate(28.334375 221.180842) scale(0.1 -0.1)">
       <use xlink:href="#DejaVuSans-30"/>
       <use xlink:href="#DejaVuSans-2e" x="63.623047"/>
       <use xlink:href="#DejaVuSans-38" x="95.410156"/>
       <use xlink:href="#DejaVuSans-36" x="159.033203"/>
      </g>
     </g>
    </g>
    <g id="ytick_4">
     <g id="line2d_10">
      <g>
       <use xlink:href="#m0ac55a8faf" x="57.6" y="184.718095" style="stroke: #000000; stroke-width: 0.8"/>
      </g>
     </g>
     <g id="text_11">
      <!-- 0.88 -->
      <g transform="translate(28.334375 188.517314) scale(0.1 -0.1)">
       <use xlink:href="#DejaVuSans-30"/>
       <use xlink:href="#DejaVuSans-2e" x="63.623047"/>
       <use xlink:href="#DejaVuSans-38" x="95.410156"/>
       <use xlink:href="#DejaVuSans-38" x="159.033203"/>
      </g>
     </g>
    </g>
    <g id="ytick_5">
     <g id="line2d_11">
      <g>
       <use xlink:href="#m0ac55a8faf" x="57.6" y="152.054567" style="stroke: #000000; stroke-width: 0.8"/>
      </g>
     </g>
     <g id="text_12">
      <!-- 0.90 -->
      <g transform="translate(28.334375 155.853786) scale(0.1 -0.1)">
       <defs>
        <path id="DejaVuSans-39" d="M 703 97 
L 703 672 
Q 941 559 1184 500 
Q 1428 441 1663 441 
Q 2288 441 2617 861 
Q 2947 1281 2994 2138 
Q 2813 1869 2534 1725 
Q 2256 1581 1919 1581 
Q 1219 1581 811 2004 
Q 403 2428 403 3163 
Q 403 3881 828 4315 
Q 1253 4750 1959 4750 
Q 2769 4750 3195 4129 
Q 3622 3509 3622 2328 
Q 3622 1225 3098 567 
Q 2575 -91 1691 -91 
Q 1453 -91 1209 -44 
Q 966 3 703 97 
z
M 1959 2075 
Q 2384 2075 2632 2365 
Q 2881 2656 2881 3163 
Q 2881 3666 2632 3958 
Q 2384 4250 1959 4250 
Q 1534 4250 1286 3958 
Q 1038 3666 1038 3163 
Q 1038 2656 1286 2365 
Q 1534 2075 1959 2075 
z
" transform="scale(0.015625)"/>
       </defs>
       <use xlink:href="#DejaVuSans-30"/>
       <use xlink:href="#DejaVuSans-2e" x="63.623047"/>
       <use xlink:href="#DejaVuSans-39" x="95.410156"/>
       <use xlink:href="#DejaVuSans-30" x="159.033203"/>
      </g>
     </g>
    </g>
    <g id="ytick_6">
     <g id="line2d_12">
      <g>
       <use xlink:href="#m0ac55a8faf" x="57.6" y="119.391039" style="stroke: #000000; stroke-width: 0.8"/>
      </g>
     </g>
     <g id="text_13">
      <!-- 0.92 -->
      <g transform="translate(28.334375 123.190258) scale(0.1 -0.1)">
       <use xlink:href="#DejaVuSans-30"/>
       <use xlink:href="#DejaVuSans-2e" x="63.623047"/>
       <use xlink:href="#DejaVuSans-39" x="95.410156"/>
       <use xlink:href="#DejaVuSans-32" x="159.033203"/>
      </g>
     </g>
    </g>
    <g id="ytick_7">
     <g id="line2d_13">
      <g>
       <use xlink:href="#m0ac55a8faf" x="57.6" y="86.727511" style="stroke: #000000; stroke-width: 0.8"/>
      </g>
     </g>
     <g id="text_14">
      <!-- 0.94 -->
      <g transform="translate(28.334375 90.52673) scale(0.1 -0.1)">
       <use xlink:href="#DejaVuSans-30"/>
       <use xlink:href="#DejaVuSans-2e" x="63.623047"/>
       <use xlink:href="#DejaVuSans-39" x="95.410156"/>
       <use xlink:href="#DejaVuSans-34" x="159.033203"/>
      </g>
     </g>
    </g>
    <g id="ytick_8">
     <g id="line2d_14">
      <g>
       <use xlink:href="#m0ac55a8faf" x="57.6" y="54.063983" style="stroke: #000000; stroke-width: 0.8"/>
      </g>
     </g>
     <g id="text_15">
      <!-- 0.96 -->
      <g transform="translate(28.334375 57.863202) scale(0.1 -0.1)">
       <use xlink:href="#DejaVuSans-30"/>
       <use xlink:href="#DejaVuSans-2e" x="63.623047"/>
       <use xlink:href="#DejaVuSans-39" x="95.410156"/>
       <use xlink:href="#DejaVuSans-36" x="159.033203"/>
      </g>
     </g>
    </g>
   </g>
   <g id="line2d_15">
    <path d="M 73.832727 127.96746 
L 77.112066 235.376439 
L 80.391405 224.464171 
L 83.670744 206.018666 
L 86.950083 201.577017 
L 90.229421 213.283169 
L 93.50876 196.409921 
L 96.788099 204.939621 
L 100.067438 189.149068 
L 103.346777 186.808932 
L 106.626116 178.628268 
L 109.905455 177.99316 
L 113.184793 171.271145 
L 116.464132 167.652581 
L 119.743471 158.836808 
L 123.02281 157.070186 
L 126.302149 152.945634 
L 129.581488 144.509923 
L 132.860826 145.220769 
L 136.140165 138.129643 
L 139.419504 134.265157 
L 142.698843 130.310789 
L 145.978182 130.489642 
L 149.257521 122.874734 
L 152.53686 122.03203 
L 155.816198 121.831733 
L 159.095537 119.260276 
L 162.374876 117.37959 
L 165.654215 117.203932 
L 168.933554 112.988129 
L 172.212893 110.317208 
L 175.492231 113.461266 
L 178.77157 109.73822 
L 182.050909 108.029999 
L 185.330248 107.6326 
L 188.609587 106.246039 
L 191.888926 108.044142 
L 195.168264 104.710738 
L 198.447603 104.505423 
L 201.726942 101.419766 
L 205.006281 99.876253 
L 208.28562 100.051911 
L 211.564959 95.240695 
L 214.844298 92.272752 
L 218.123636 88.687038 
L 221.402975 86.233751 
L 224.682314 83.912322 
L 227.961653 83.405879 
L 231.240992 83.327403 
L 234.520331 82.650319 
L 237.799669 82.434966 
L 241.079008 81.726858 
L 244.358347 81.029699 
L 247.637686 80.222126 
L 250.917025 81.760621 
L 254.196364 81.195776 
L 257.475702 80.705301 
L 260.755041 81.351359 
L 264.03438 80.660588 
L 267.313719 79.548237 
L 270.593058 78.592837 
L 273.872397 78.220989 
L 277.151736 79.480255 
L 280.431074 78.274371 
L 283.710413 79.035862 
L 286.989752 76.787433 
L 290.269091 78.229201 
L 293.54843 77.206276 
L 296.827769 77.108637 
L 300.107107 76.823934 
L 303.386446 77.421629 
L 306.665785 75.815153 
L 309.945124 75.937885 
L 313.224463 76.13955 
L 316.503802 75.833403 
L 319.78314 75.373953 
L 323.062479 75.767246 
L 326.341818 75.818803 
L 329.621157 76.133163 
L 332.900496 74.720595 
L 336.179835 75.253958 
L 339.459174 75.59615 
L 342.738512 76.019555 
L 346.017851 75.510374 
L 349.29719 76.524174 
L 352.576529 74.644857 
L 355.855868 75.796446 
L 359.135207 74.932298 
L 362.414545 74.5933 
L 365.693884 76.151869 
L 368.973223 76.516874 
L 372.252562 74.306771 
L 375.531901 74.946442 
L 378.81124 75.194189 
L 382.090579 74.822796 
L 385.369917 75.369847 
L 388.649256 74.815953 
L 391.928595 73.821771 
L 395.207934 74.876635 
L 398.487273 74.259321 
" clip-path="url(#p18206c53d6)" style="fill: none; stroke: #1f77b4; stroke-width: 1.5; stroke-linecap: square"/>
   </g>
   <g id="line2d_16">
    <path d="M 73.832727 128.124653 
L 77.112066 295.177806 
L 80.391405 212.168645 
L 83.670744 187.526307 
L 86.950083 167.273496 
L 90.229421 144.938143 
L 93.50876 130.500627 
L 96.788099 114.84201 
L 100.067438 105.069057 
L 103.346777 92.185169 
L 106.626116 86.82198 
L 109.905455 82.802233 
L 113.184793 82.875361 
L 116.464132 80.182958 
L 119.743471 78.776047 
L 123.02281 77.233917 
L 126.302149 76.655791 
L 129.581488 75.545531 
L 132.860826 76.2276 
L 136.140165 75.529894 
L 139.419504 75.462285 
L 142.698843 74.807811 
L 145.978182 74.600845 
L 149.257521 73.983625 
L 152.53686 74.25912 
L 155.816198 73.860365 
L 159.095537 74.01536 
L 162.374876 73.912336 
L 165.654215 73.368245 
L 168.933554 73.610165 
L 172.212893 73.256943 
L 175.492231 72.435056 
L 178.77157 72.143924 
L 182.050909 72.29064 
L 185.330248 72.408381 
L 188.609587 71.632027 
L 191.888926 72.068036 
L 195.168264 71.61041 
L 198.447603 72.166 
L 201.726942 71.144506 
L 205.006281 75.137117 
L 208.28562 73.695712 
L 211.564959 72.805296 
L 214.844298 72.196815 
L 218.123636 71.781962 
L 221.402975 70.742531 
L 224.682314 70.805541 
L 227.961653 70.680901 
L 231.240992 70.43944 
L 234.520331 67.248938 
L 237.799669 64.512383 
L 241.079008 62.852512 
L 244.358347 62.001191 
L 247.637686 60.831141 
L 250.917025 59.865297 
L 254.196364 59.54243 
L 257.475702 58.566468 
L 260.755041 56.672956 
L 264.03438 55.657901 
L 267.313719 55.72367 
L 270.593058 55.008946 
L 273.872397 55.145544 
L 277.151736 55.192916 
L 280.431074 55.162561 
L 283.710413 55.326754 
L 286.989752 55.35665 
L 290.269091 55.154282 
L 293.54843 55.261445 
L 296.827769 55.300999 
L 300.107107 54.973992 
L 303.386446 54.930299 
L 306.665785 54.911902 
L 309.945124 54.830035 
L 313.224463 55.066437 
L 316.503802 54.715974 
L 319.78314 54.670901 
L 323.062479 54.697117 
L 326.341818 54.610651 
L 329.621157 54.73943 
L 332.900496 54.388507 
L 336.179835 55.459213 
L 339.459174 54.446917 
L 342.738512 53.905125 
L 346.017851 53.847635 
L 349.29719 53.568 
L 352.576529 53.568 
L 355.855868 53.568 
L 359.135207 53.568 
L 362.414545 53.568 
L 365.693884 53.568 
L 368.973223 53.568 
L 372.252562 53.568 
L 375.531901 53.568 
L 378.81124 53.568 
L 382.090579 53.568 
L 385.369917 53.568 
L 388.649256 53.568 
L 391.928595 53.568 
L 395.207934 53.568 
L 398.487273 53.568 
" clip-path="url(#p18206c53d6)" style="fill: none; stroke: #ff7f0e; stroke-width: 1.5; stroke-linecap: square"/>
   </g>
   <g id="line2d_17">
    <path d="M 73.832727 128.075038 
L 77.112066 295.488 
L 80.391405 189.171843 
L 83.670744 147.960148 
L 86.950083 120.113041 
L 90.229421 96.931972 
L 93.50876 88.453484 
L 96.788099 83.756719 
L 100.067438 80.070794 
L 103.346777 77.987661 
L 106.626116 75.905431 
L 109.905455 74.58777 
L 113.184793 73.601332 
L 116.464132 73.690351 
L 119.743471 73.131385 
L 123.02281 72.832697 
L 126.302149 72.395284 
L 129.581488 71.604959 
L 132.860826 71.301752 
L 136.140165 71.226289 
L 139.419504 74.094777 
L 142.698843 71.652857 
L 145.978182 71.566098 
L 149.257521 70.64247 
L 152.53686 69.689018 
L 155.816198 64.360536 
L 159.095537 62.202843 
L 162.374876 59.831867 
L 165.654215 58.695859 
L 168.933554 55.599628 
L 172.212893 55.384084 
L 175.492231 54.925434 
L 178.77157 55.115672 
L 182.050909 55.146399 
L 185.330248 55.119739 
L 188.609587 54.773152 
L 191.888926 54.88838 
L 195.168264 54.655666 
L 198.447603 54.411202 
L 201.726942 54.392224 
L 205.006281 55.797096 
L 208.28562 54.290101 
L 211.564959 53.613195 
L 214.844298 53.613195 
L 218.123636 53.613195 
L 221.402975 53.613195 
L 224.682314 53.613195 
L 227.961653 53.613195 
L 231.240992 53.613195 
L 234.520331 53.613195 
L 237.799669 53.613195 
L 241.079008 53.613195 
L 244.358347 53.613195 
L 247.637686 53.613195 
L 250.917025 53.613195 
L 254.196364 53.613195 
L 257.475702 53.613195 
L 260.755041 53.613195 
L 264.03438 53.613195 
L 267.313719 53.613195 
L 270.593058 53.613195 
L 273.872397 53.613195 
L 277.151736 53.613195 
L 280.431074 53.613195 
L 283.710413 53.613195 
L 286.989752 53.613195 
L 290.269091 53.613195 
L 293.54843 53.613195 
L 296.827769 53.613195 
L 300.107107 53.613195 
L 303.386446 53.613195 
L 306.665785 53.613195 
L 309.945124 53.613195 
L 313.224463 53.613195 
L 316.503802 53.613195 
L 319.78314 53.613195 
L 323.062479 53.613195 
L 326.341818 53.613195 
L 329.621157 53.613195 
L 332.900496 53.613195 
L 336.179835 53.613195 
L 339.459174 53.613195 
L 342.738512 53.613195 
L 346.017851 53.613195 
L 349.29719 53.613195 
L 352.576529 53.613195 
L 355.855868 53.613195 
L 359.135207 53.613195 
L 362.414545 53.613195 
L 365.693884 53.613195 
L 368.973223 53.613195 
L 372.252562 53.613195 
L 375.531901 53.613195 
L 378.81124 53.613195 
L 382.090579 53.613195 
L 385.369917 53.613195 
L 388.649256 53.613195 
L 391.928595 53.613195 
L 395.207934 53.613195 
L 398.487273 53.613195 
" clip-path="url(#p18206c53d6)" style="fill: none; stroke: #2ca02c; stroke-width: 1.5; stroke-linecap: square"/>
   </g>
   <g id="patch_3">
    <path d="M 57.6 307.584 
L 57.6 41.472 
" style="fill: none; stroke: #000000; stroke-width: 0.8; stroke-linejoin: miter; stroke-linecap: square"/>
   </g>
   <g id="patch_4">
    <path d="M 414.72 307.584 
L 414.72 41.472 
" style="fill: none; stroke: #000000; stroke-width: 0.8; stroke-linejoin: miter; stroke-linecap: square"/>
   </g>
   <g id="patch_5">
    <path d="M 57.6 307.584 
L 414.72 307.584 
" style="fill: none; stroke: #000000; stroke-width: 0.8; stroke-linejoin: miter; stroke-linecap: square"/>
   </g>
   <g id="patch_6">
    <path d="M 57.6 41.472 
L 414.72 41.472 
" style="fill: none; stroke: #000000; stroke-width: 0.8; stroke-linejoin: miter; stroke-linecap: square"/>
   </g>
   <g id="text_16">
    <!-- Average time series for dataset 'breast_cancer_wisconsin_original' and metric 'weighted_recall' -->
    <g transform="translate(-49.979062 35.472) scale(0.12 -0.12)">
     <defs>
      <path id="DejaVuSans-41" d="M 2188 4044 
L 1331 1722 
L 3047 1722 
L 2188 4044 
z
M 1831 4666 
L 2547 4666 
L 4325 0 
L 3669 0 
L 3244 1197 
L 1141 1197 
L 716 0 
L 50 0 
L 1831 4666 
z
" transform="scale(0.015625)"/>
      <path id="DejaVuSans-76" d="M 191 3500 
L 800 3500 
L 1894 563 
L 2988 3500 
L 3597 3500 
L 2284 0 
L 1503 0 
L 191 3500 
z
" transform="scale(0.015625)"/>
      <path id="DejaVuSans-67" d="M 2906 1791 
Q 2906 2416 2648 2759 
Q 2391 3103 1925 3103 
Q 1463 3103 1205 2759 
Q 947 2416 947 1791 
Q 947 1169 1205 825 
Q 1463 481 1925 481 
Q 2391 481 2648 825 
Q 2906 1169 2906 1791 
z
M 3481 434 
Q 3481 -459 3084 -895 
Q 2688 -1331 1869 -1331 
Q 1566 -1331 1297 -1286 
Q 1028 -1241 775 -1147 
L 775 -588 
Q 1028 -725 1275 -790 
Q 1522 -856 1778 -856 
Q 2344 -856 2625 -561 
Q 2906 -266 2906 331 
L 2906 616 
Q 2728 306 2450 153 
Q 2172 0 1784 0 
Q 1141 0 747 490 
Q 353 981 353 1791 
Q 353 2603 747 3093 
Q 1141 3584 1784 3584 
Q 2172 3584 2450 3431 
Q 2728 3278 2906 2969 
L 2906 3500 
L 3481 3500 
L 3481 434 
z
" transform="scale(0.015625)"/>
      <path id="DejaVuSans-20" transform="scale(0.015625)"/>
      <path id="DejaVuSans-6d" d="M 3328 2828 
Q 3544 3216 3844 3400 
Q 4144 3584 4550 3584 
Q 5097 3584 5394 3201 
Q 5691 2819 5691 2113 
L 5691 0 
L 5113 0 
L 5113 2094 
Q 5113 2597 4934 2840 
Q 4756 3084 4391 3084 
Q 3944 3084 3684 2787 
Q 3425 2491 3425 1978 
L 3425 0 
L 2847 0 
L 2847 2094 
Q 2847 2600 2669 2842 
Q 2491 3084 2119 3084 
Q 1678 3084 1418 2786 
Q 1159 2488 1159 1978 
L 1159 0 
L 581 0 
L 581 3500 
L 1159 3500 
L 1159 2956 
Q 1356 3278 1631 3431 
Q 1906 3584 2284 3584 
Q 2666 3584 2933 3390 
Q 3200 3197 3328 2828 
z
" transform="scale(0.015625)"/>
      <path id="DejaVuSans-73" d="M 2834 3397 
L 2834 2853 
Q 2591 2978 2328 3040 
Q 2066 3103 1784 3103 
Q 1356 3103 1142 2972 
Q 928 2841 928 2578 
Q 928 2378 1081 2264 
Q 1234 2150 1697 2047 
L 1894 2003 
Q 2506 1872 2764 1633 
Q 3022 1394 3022 966 
Q 3022 478 2636 193 
Q 2250 -91 1575 -91 
Q 1294 -91 989 -36 
Q 684 19 347 128 
L 347 722 
Q 666 556 975 473 
Q 1284 391 1588 391 
Q 1994 391 2212 530 
Q 2431 669 2431 922 
Q 2431 1156 2273 1281 
Q 2116 1406 1581 1522 
L 1381 1569 
Q 847 1681 609 1914 
Q 372 2147 372 2553 
Q 372 3047 722 3315 
Q 1072 3584 1716 3584 
Q 2034 3584 2315 3537 
Q 2597 3491 2834 3397 
z
" transform="scale(0.015625)"/>
      <path id="DejaVuSans-66" d="M 2375 4863 
L 2375 4384 
L 1825 4384 
Q 1516 4384 1395 4259 
Q 1275 4134 1275 3809 
L 1275 3500 
L 2222 3500 
L 2222 3053 
L 1275 3053 
L 1275 0 
L 697 0 
L 697 3053 
L 147 3053 
L 147 3500 
L 697 3500 
L 697 3744 
Q 697 4328 969 4595 
Q 1241 4863 1831 4863 
L 2375 4863 
z
" transform="scale(0.015625)"/>
      <path id="DejaVuSans-64" d="M 2906 2969 
L 2906 4863 
L 3481 4863 
L 3481 0 
L 2906 0 
L 2906 525 
Q 2725 213 2448 61 
Q 2172 -91 1784 -91 
Q 1150 -91 751 415 
Q 353 922 353 1747 
Q 353 2572 751 3078 
Q 1150 3584 1784 3584 
Q 2172 3584 2448 3432 
Q 2725 3281 2906 2969 
z
M 947 1747 
Q 947 1113 1208 752 
Q 1469 391 1925 391 
Q 2381 391 2643 752 
Q 2906 1113 2906 1747 
Q 2906 2381 2643 2742 
Q 2381 3103 1925 3103 
Q 1469 3103 1208 2742 
Q 947 2381 947 1747 
z
" transform="scale(0.015625)"/>
      <path id="DejaVuSans-27" d="M 1147 4666 
L 1147 2931 
L 616 2931 
L 616 4666 
L 1147 4666 
z
" transform="scale(0.015625)"/>
      <path id="DejaVuSans-62" d="M 3116 1747 
Q 3116 2381 2855 2742 
Q 2594 3103 2138 3103 
Q 1681 3103 1420 2742 
Q 1159 2381 1159 1747 
Q 1159 1113 1420 752 
Q 1681 391 2138 391 
Q 2594 391 2855 752 
Q 3116 1113 3116 1747 
z
M 1159 2969 
Q 1341 3281 1617 3432 
Q 1894 3584 2278 3584 
Q 2916 3584 3314 3078 
Q 3713 2572 3713 1747 
Q 3713 922 3314 415 
Q 2916 -91 2278 -91 
Q 1894 -91 1617 61 
Q 1341 213 1159 525 
L 1159 0 
L 581 0 
L 581 4863 
L 1159 4863 
L 1159 2969 
z
" transform="scale(0.015625)"/>
      <path id="DejaVuSans-5f" d="M 3263 -1063 
L 3263 -1509 
L -63 -1509 
L -63 -1063 
L 3263 -1063 
z
" transform="scale(0.015625)"/>
      <path id="DejaVuSans-63" d="M 3122 3366 
L 3122 2828 
Q 2878 2963 2633 3030 
Q 2388 3097 2138 3097 
Q 1578 3097 1268 2742 
Q 959 2388 959 1747 
Q 959 1106 1268 751 
Q 1578 397 2138 397 
Q 2388 397 2633 464 
Q 2878 531 3122 666 
L 3122 134 
Q 2881 22 2623 -34 
Q 2366 -91 2075 -91 
Q 1284 -91 818 406 
Q 353 903 353 1747 
Q 353 2603 823 3093 
Q 1294 3584 2113 3584 
Q 2378 3584 2631 3529 
Q 2884 3475 3122 3366 
z
" transform="scale(0.015625)"/>
      <path id="DejaVuSans-77" d="M 269 3500 
L 844 3500 
L 1563 769 
L 2278 3500 
L 2956 3500 
L 3675 769 
L 4391 3500 
L 4966 3500 
L 4050 0 
L 3372 0 
L 2619 2869 
L 1863 0 
L 1184 0 
L 269 3500 
z
" transform="scale(0.015625)"/>
      <path id="DejaVuSans-6c" d="M 603 4863 
L 1178 4863 
L 1178 0 
L 603 0 
L 603 4863 
z
" transform="scale(0.015625)"/>
      <path id="DejaVuSans-68" d="M 3513 2113 
L 3513 0 
L 2938 0 
L 2938 2094 
Q 2938 2591 2744 2837 
Q 2550 3084 2163 3084 
Q 1697 3084 1428 2787 
Q 1159 2491 1159 1978 
L 1159 0 
L 581 0 
L 581 4863 
L 1159 4863 
L 1159 2956 
Q 1366 3272 1645 3428 
Q 1925 3584 2291 3584 
Q 2894 3584 3203 3211 
Q 3513 2838 3513 2113 
z
" transform="scale(0.015625)"/>
     </defs>
     <use xlink:href="#DejaVuSans-41"/>
     <use xlink:href="#DejaVuSans-76" x="62.533203"/>
     <use xlink:href="#DejaVuSans-65" x="121.712891"/>
     <use xlink:href="#DejaVuSans-72" x="183.236328"/>
     <use xlink:href="#DejaVuSans-61" x="224.349609"/>
     <use xlink:href="#DejaVuSans-67" x="285.628906"/>
     <use xlink:href="#DejaVuSans-65" x="349.105469"/>
     <use xlink:href="#DejaVuSans-20" x="410.628906"/>
     <use xlink:href="#DejaVuSans-74" x="442.416016"/>
     <use xlink:href="#DejaVuSans-69" x="481.625"/>
     <use xlink:href="#DejaVuSans-6d" x="509.408203"/>
     <use xlink:href="#DejaVuSans-65" x="606.820312"/>
     <use xlink:href="#DejaVuSans-20" x="668.34375"/>
     <use xlink:href="#DejaVuSans-73" x="700.130859"/>
     <use xlink:href="#DejaVuSans-65" x="752.230469"/>
     <use xlink:href="#DejaVuSans-72" x="813.753906"/>
     <use xlink:href="#DejaVuSans-69" x="854.867188"/>
     <use xlink:href="#DejaVuSans-65" x="882.650391"/>
     <use xlink:href="#DejaVuSans-73" x="944.173828"/>
     <use xlink:href="#DejaVuSans-20" x="996.273438"/>
     <use xlink:href="#DejaVuSans-66" x="1028.060547"/>
     <use xlink:href="#DejaVuSans-6f" x="1063.265625"/>
     <use xlink:href="#DejaVuSans-72" x="1124.447266"/>
     <use xlink:href="#DejaVuSans-20" x="1165.560547"/>
     <use xlink:href="#DejaVuSans-64" x="1197.347656"/>
     <use xlink:href="#DejaVuSans-61" x="1260.824219"/>
     <use xlink:href="#DejaVuSans-74" x="1322.103516"/>
     <use xlink:href="#DejaVuSans-61" x="1361.3125"/>
     <use xlink:href="#DejaVuSans-73" x="1422.591797"/>
     <use xlink:href="#DejaVuSans-65" x="1474.691406"/>
     <use xlink:href="#DejaVuSans-74" x="1536.214844"/>
     <use xlink:href="#DejaVuSans-20" x="1575.423828"/>
     <use xlink:href="#DejaVuSans-27" x="1607.210938"/>
     <use xlink:href="#DejaVuSans-62" x="1634.701172"/>
     <use xlink:href="#DejaVuSans-72" x="1698.177734"/>
     <use xlink:href="#DejaVuSans-65" x="1737.041016"/>
     <use xlink:href="#DejaVuSans-61" x="1798.564453"/>
     <use xlink:href="#DejaVuSans-73" x="1859.84375"/>
     <use xlink:href="#DejaVuSans-74" x="1911.943359"/>
     <use xlink:href="#DejaVuSans-5f" x="1951.152344"/>
     <use xlink:href="#DejaVuSans-63" x="2001.152344"/>
     <use xlink:href="#DejaVuSans-61" x="2056.132812"/>
     <use xlink:href="#DejaVuSans-6e" x="2117.412109"/>
     <use xlink:href="#DejaVuSans-63" x="2180.791016"/>
     <use xlink:href="#DejaVuSans-65" x="2235.771484"/>
     <use xlink:href="#DejaVuSans-72" x="2297.294922"/>
     <use xlink:href="#DejaVuSans-5f" x="2338.408203"/>
     <use xlink:href="#DejaVuSans-77" x="2388.408203"/>
     <use xlink:href="#DejaVuSans-69" x="2470.195312"/>
     <use xlink:href="#DejaVuSans-73" x="2497.978516"/>
     <use xlink:href="#DejaVuSans-63" x="2550.078125"/>
     <use xlink:href="#DejaVuSans-6f" x="2605.058594"/>
     <use xlink:href="#DejaVuSans-6e" x="2666.240234"/>
     <use xlink:href="#DejaVuSans-73" x="2729.619141"/>
     <use xlink:href="#DejaVuSans-69" x="2781.71875"/>
     <use xlink:href="#DejaVuSans-6e" x="2809.501953"/>
     <use xlink:href="#DejaVuSans-5f" x="2872.880859"/>
     <use xlink:href="#DejaVuSans-6f" x="2922.880859"/>
     <use xlink:href="#DejaVuSans-72" x="2984.0625"/>
     <use xlink:href="#DejaVuSans-69" x="3025.175781"/>
     <use xlink:href="#DejaVuSans-67" x="3052.958984"/>
     <use xlink:href="#DejaVuSans-69" x="3116.435547"/>
     <use xlink:href="#DejaVuSans-6e" x="3144.21875"/>
     <use xlink:href="#DejaVuSans-61" x="3207.597656"/>
     <use xlink:href="#DejaVuSans-6c" x="3268.876953"/>
     <use xlink:href="#DejaVuSans-27" x="3296.660156"/>
     <use xlink:href="#DejaVuSans-20" x="3324.150391"/>
     <use xlink:href="#DejaVuSans-61" x="3355.9375"/>
     <use xlink:href="#DejaVuSans-6e" x="3417.216797"/>
     <use xlink:href="#DejaVuSans-64" x="3480.595703"/>
     <use xlink:href="#DejaVuSans-20" x="3544.072266"/>
     <use xlink:href="#DejaVuSans-6d" x="3575.859375"/>
     <use xlink:href="#DejaVuSans-65" x="3673.271484"/>
     <use xlink:href="#DejaVuSans-74" x="3734.794922"/>
     <use xlink:href="#DejaVuSans-72" x="3774.003906"/>
     <use xlink:href="#DejaVuSans-69" x="3815.117188"/>
     <use xlink:href="#DejaVuSans-63" x="3842.900391"/>
     <use xlink:href="#DejaVuSans-20" x="3897.880859"/>
     <use xlink:href="#DejaVuSans-27" x="3929.667969"/>
     <use xlink:href="#DejaVuSans-77" x="3957.158203"/>
     <use xlink:href="#DejaVuSans-65" x="4038.945312"/>
     <use xlink:href="#DejaVuSans-69" x="4100.46875"/>
     <use xlink:href="#DejaVuSans-67" x="4128.251953"/>
     <use xlink:href="#DejaVuSans-68" x="4191.728516"/>
     <use xlink:href="#DejaVuSans-74" x="4255.107422"/>
     <use xlink:href="#DejaVuSans-65" x="4294.316406"/>
     <use xlink:href="#DejaVuSans-64" x="4355.839844"/>
     <use xlink:href="#DejaVuSans-5f" x="4419.316406"/>
     <use xlink:href="#DejaVuSans-72" x="4469.316406"/>
     <use xlink:href="#DejaVuSans-65" x="4508.179688"/>
     <use xlink:href="#DejaVuSans-63" x="4569.703125"/>
     <use xlink:href="#DejaVuSans-61" x="4624.683594"/>
     <use xlink:href="#DejaVuSans-6c" x="4685.962891"/>
     <use xlink:href="#DejaVuSans-6c" x="4713.746094"/>
     <use xlink:href="#DejaVuSans-27" x="4741.529297"/>
    </g>
   </g>
   <g id="legend_1">
    <g id="patch_7">
     <path d="M 305.135625 302.584 
L 407.72 302.584 
Q 409.72 302.584 409.72 300.584 
L 409.72 257.549625 
Q 409.72 255.549625 407.72 255.549625 
L 305.135625 255.549625 
Q 303.135625 255.549625 303.135625 257.549625 
L 303.135625 300.584 
Q 303.135625 302.584 305.135625 302.584 
z
" style="fill: #ffffff; opacity: 0.8; stroke: #cccccc; stroke-linejoin: miter"/>
    </g>
    <g id="line2d_18">
     <path d="M 307.135625 263.648062 
L 317.135625 263.648062 
L 327.135625 263.648062 
" style="fill: none; stroke: #1f77b4; stroke-width: 1.5; stroke-linecap: square"/>
    </g>
    <g id="text_17">
     <!-- Batch size: 1 -->
     <g transform="translate(335.135625 267.148062) scale(0.1 -0.1)">
      <defs>
       <path id="DejaVuSans-42" d="M 1259 2228 
L 1259 519 
L 2272 519 
Q 2781 519 3026 730 
Q 3272 941 3272 1375 
Q 3272 1813 3026 2020 
Q 2781 2228 2272 2228 
L 1259 2228 
z
M 1259 4147 
L 1259 2741 
L 2194 2741 
Q 2656 2741 2882 2914 
Q 3109 3088 3109 3444 
Q 3109 3797 2882 3972 
Q 2656 4147 2194 4147 
L 1259 4147 
z
M 628 4666 
L 2241 4666 
Q 2963 4666 3353 4366 
Q 3744 4066 3744 3513 
Q 3744 3084 3544 2831 
Q 3344 2578 2956 2516 
Q 3422 2416 3680 2098 
Q 3938 1781 3938 1306 
Q 3938 681 3513 340 
Q 3088 0 2303 0 
L 628 0 
L 628 4666 
z
" transform="scale(0.015625)"/>
       <path id="DejaVuSans-7a" d="M 353 3500 
L 3084 3500 
L 3084 2975 
L 922 459 
L 3084 459 
L 3084 0 
L 275 0 
L 275 525 
L 2438 3041 
L 353 3041 
L 353 3500 
z
" transform="scale(0.015625)"/>
       <path id="DejaVuSans-3a" d="M 750 794 
L 1409 794 
L 1409 0 
L 750 0 
L 750 794 
z
M 750 3309 
L 1409 3309 
L 1409 2516 
L 750 2516 
L 750 3309 
z
" transform="scale(0.015625)"/>
      </defs>
      <use xlink:href="#DejaVuSans-42"/>
      <use xlink:href="#DejaVuSans-61" x="68.603516"/>
      <use xlink:href="#DejaVuSans-74" x="129.882812"/>
      <use xlink:href="#DejaVuSans-63" x="169.091797"/>
      <use xlink:href="#DejaVuSans-68" x="224.072266"/>
      <use xlink:href="#DejaVuSans-20" x="287.451172"/>
      <use xlink:href="#DejaVuSans-73" x="319.238281"/>
      <use xlink:href="#DejaVuSans-69" x="371.337891"/>
      <use xlink:href="#DejaVuSans-7a" x="399.121094"/>
      <use xlink:href="#DejaVuSans-65" x="451.611328"/>
      <use xlink:href="#DejaVuSans-3a" x="513.134766"/>
      <use xlink:href="#DejaVuSans-20" x="546.826172"/>
      <use xlink:href="#DejaVuSans-31" x="578.613281"/>
     </g>
    </g>
    <g id="line2d_19">
     <path d="M 307.135625 278.326188 
L 317.135625 278.326188 
L 327.135625 278.326188 
" style="fill: none; stroke: #ff7f0e; stroke-width: 1.5; stroke-linecap: square"/>
    </g>
    <g id="text_18">
     <!-- Batch size: 5 -->
     <g transform="translate(335.135625 281.826188) scale(0.1 -0.1)">
      <defs>
       <path id="DejaVuSans-35" d="M 691 4666 
L 3169 4666 
L 3169 4134 
L 1269 4134 
L 1269 2991 
Q 1406 3038 1543 3061 
Q 1681 3084 1819 3084 
Q 2600 3084 3056 2656 
Q 3513 2228 3513 1497 
Q 3513 744 3044 326 
Q 2575 -91 1722 -91 
Q 1428 -91 1123 -41 
Q 819 9 494 109 
L 494 744 
Q 775 591 1075 516 
Q 1375 441 1709 441 
Q 2250 441 2565 725 
Q 2881 1009 2881 1497 
Q 2881 1984 2565 2268 
Q 2250 2553 1709 2553 
Q 1456 2553 1204 2497 
Q 953 2441 691 2322 
L 691 4666 
z
" transform="scale(0.015625)"/>
      </defs>
      <use xlink:href="#DejaVuSans-42"/>
      <use xlink:href="#DejaVuSans-61" x="68.603516"/>
      <use xlink:href="#DejaVuSans-74" x="129.882812"/>
      <use xlink:href="#DejaVuSans-63" x="169.091797"/>
      <use xlink:href="#DejaVuSans-68" x="224.072266"/>
      <use xlink:href="#DejaVuSans-20" x="287.451172"/>
      <use xlink:href="#DejaVuSans-73" x="319.238281"/>
      <use xlink:href="#DejaVuSans-69" x="371.337891"/>
      <use xlink:href="#DejaVuSans-7a" x="399.121094"/>
      <use xlink:href="#DejaVuSans-65" x="451.611328"/>
      <use xlink:href="#DejaVuSans-3a" x="513.134766"/>
      <use xlink:href="#DejaVuSans-20" x="546.826172"/>
      <use xlink:href="#DejaVuSans-35" x="578.613281"/>
     </g>
    </g>
    <g id="line2d_20">
     <path d="M 307.135625 293.004312 
L 317.135625 293.004312 
L 327.135625 293.004312 
" style="fill: none; stroke: #2ca02c; stroke-width: 1.5; stroke-linecap: square"/>
    </g>
    <g id="text_19">
     <!-- Batch size: 10 -->
     <g transform="translate(335.135625 296.504312) scale(0.1 -0.1)">
      <use xlink:href="#DejaVuSans-42"/>
      <use xlink:href="#DejaVuSans-61" x="68.603516"/>
      <use xlink:href="#DejaVuSans-74" x="129.882812"/>
      <use xlink:href="#DejaVuSans-63" x="169.091797"/>
      <use xlink:href="#DejaVuSans-68" x="224.072266"/>
      <use xlink:href="#DejaVuSans-20" x="287.451172"/>
      <use xlink:href="#DejaVuSans-73" x="319.238281"/>
      <use xlink:href="#DejaVuSans-69" x="371.337891"/>
      <use xlink:href="#DejaVuSans-7a" x="399.121094"/>
      <use xlink:href="#DejaVuSans-65" x="451.611328"/>
      <use xlink:href="#DejaVuSans-3a" x="513.134766"/>
      <use xlink:href="#DejaVuSans-20" x="546.826172"/>
      <use xlink:href="#DejaVuSans-31" x="578.613281"/>
      <use xlink:href="#DejaVuSans-30" x="642.236328"/>
     </g>
    </g>
   </g>
  </g>
 </g>
 <defs>
  <clipPath id="p18206c53d6">
   <rect x="57.6" y="41.472" width="357.12" height="266.112"/>
  </clipPath>
 </defs>
</svg>
