<?xml version="1.0" encoding="utf-8" standalone="no"?>
<!DOCTYPE svg PUBLIC "-//W3C//DTD SVG 1.1//EN"
  "http://www.w3.org/Graphics/SVG/1.1/DTD/svg11.dtd">
<svg xmlns:xlink="http://www.w3.org/1999/xlink" width="460.8pt" height="345.6pt" viewBox="0 0 460.8 345.6" xmlns="http://www.w3.org/2000/svg" version="1.1">
 <metadata>
  <rdf:RDF xmlns:dc="http://purl.org/dc/elements/1.1/" xmlns:cc="http://creativecommons.org/ns#" xmlns:rdf="http://www.w3.org/1999/02/22-rdf-syntax-ns#">
   <cc:Work>
    <dc:type rdf:resource="http://purl.org/dc/dcmitype/StillImage"/>
    <dc:date>2023-06-23T16:54:59.080238</dc:date>
    <dc:format>image/svg+xml</dc:format>
    <dc:creator>
     <cc:Agent>
      <dc:title>Matplotlib v3.7.1, https://matplotlib.org/</dc:title>
     </cc:Agent>
    </dc:creator>
   </cc:Work>
  </rdf:RDF>
 </metadata>
 <defs>
  <style type="text/css">*{stroke-linejoin: round; stroke-linecap: butt}</style>
 </defs>
 <g id="figure_1">
  <g id="patch_1">
   <path d="M 0 345.6 
L 460.8 345.6 
L 460.8 0 
L 0 0 
z
" style="fill: #ffffff"/>
  </g>
  <g id="axes_1">
   <g id="patch_2">
    <path d="M 57.6 307.584 
L 414.72 307.584 
L 414.72 41.472 
L 57.6 41.472 
z
" style="fill: #ffffff"/>
   </g>
   <g id="matplotlib.axis_1">
    <g id="xtick_1">
     <g id="line2d_1">
      <defs>
       <path id="m3faa90ddc9" d="M 0 0 
L 0 3.5 
" style="stroke: #000000; stroke-width: 0.8"/>
      </defs>
      <g>
       <use xlink:href="#m3faa90ddc9" x="73.832727" y="307.584" style="stroke: #000000; stroke-width: 0.8"/>
      </g>
     </g>
     <g id="text_1">
      <!-- 0 -->
      <g transform="translate(70.651477 322.182437) scale(0.1 -0.1)">
       <defs>
        <path id="DejaVuSans-30" d="M 2034 4250 
Q 1547 4250 1301 3770 
Q 1056 3291 1056 2328 
Q 1056 1369 1301 889 
Q 1547 409 2034 409 
Q 2525 409 2770 889 
Q 3016 1369 3016 2328 
Q 3016 3291 2770 3770 
Q 2525 4250 2034 4250 
z
M 2034 4750 
Q 2819 4750 3233 4129 
Q 3647 3509 3647 2328 
Q 3647 1150 3233 529 
Q 2819 -91 2034 -91 
Q 1250 -91 836 529 
Q 422 1150 422 2328 
Q 422 3509 836 4129 
Q 1250 4750 2034 4750 
z
" transform="scale(0.015625)"/>
       </defs>
       <use xlink:href="#DejaVuSans-30"/>
      </g>
     </g>
    </g>
    <g id="xtick_2">
     <g id="line2d_2">
      <g>
       <use xlink:href="#m3faa90ddc9" x="139.419504" y="307.584" style="stroke: #000000; stroke-width: 0.8"/>
      </g>
     </g>
     <g id="text_2">
      <!-- 20 -->
      <g transform="translate(133.057004 322.182437) scale(0.1 -0.1)">
       <defs>
        <path id="DejaVuSans-32" d="M 1228 531 
L 3431 531 
L 3431 0 
L 469 0 
L 469 531 
Q 828 903 1448 1529 
Q 2069 2156 2228 2338 
Q 2531 2678 2651 2914 
Q 2772 3150 2772 3378 
Q 2772 3750 2511 3984 
Q 2250 4219 1831 4219 
Q 1534 4219 1204 4116 
Q 875 4013 500 3803 
L 500 4441 
Q 881 4594 1212 4672 
Q 1544 4750 1819 4750 
Q 2544 4750 2975 4387 
Q 3406 4025 3406 3419 
Q 3406 3131 3298 2873 
Q 3191 2616 2906 2266 
Q 2828 2175 2409 1742 
Q 1991 1309 1228 531 
z
" transform="scale(0.015625)"/>
       </defs>
       <use xlink:href="#DejaVuSans-32"/>
       <use xlink:href="#DejaVuSans-30" x="63.623047"/>
      </g>
     </g>
    </g>
    <g id="xtick_3">
     <g id="line2d_3">
      <g>
       <use xlink:href="#m3faa90ddc9" x="205.006281" y="307.584" style="stroke: #000000; stroke-width: 0.8"/>
      </g>
     </g>
     <g id="text_3">
      <!-- 40 -->
      <g transform="translate(198.643781 322.182437) scale(0.1 -0.1)">
       <defs>
        <path id="DejaVuSans-34" d="M 2419 4116 
L 825 1625 
L 2419 1625 
L 2419 4116 
z
M 2253 4666 
L 3047 4666 
L 3047 1625 
L 3713 1625 
L 3713 1100 
L 3047 1100 
L 3047 0 
L 2419 0 
L 2419 1100 
L 313 1100 
L 313 1709 
L 2253 4666 
z
" transform="scale(0.015625)"/>
       </defs>
       <use xlink:href="#DejaVuSans-34"/>
       <use xlink:href="#DejaVuSans-30" x="63.623047"/>
      </g>
     </g>
    </g>
    <g id="xtick_4">
     <g id="line2d_4">
      <g>
       <use xlink:href="#m3faa90ddc9" x="270.593058" y="307.584" style="stroke: #000000; stroke-width: 0.8"/>
      </g>
     </g>
     <g id="text_4">
      <!-- 60 -->
      <g transform="translate(264.230558 322.182437) scale(0.1 -0.1)">
       <defs>
        <path id="DejaVuSans-36" d="M 2113 2584 
Q 1688 2584 1439 2293 
Q 1191 2003 1191 1497 
Q 1191 994 1439 701 
Q 1688 409 2113 409 
Q 2538 409 2786 701 
Q 3034 994 3034 1497 
Q 3034 2003 2786 2293 
Q 2538 2584 2113 2584 
z
M 3366 4563 
L 3366 3988 
Q 3128 4100 2886 4159 
Q 2644 4219 2406 4219 
Q 1781 4219 1451 3797 
Q 1122 3375 1075 2522 
Q 1259 2794 1537 2939 
Q 1816 3084 2150 3084 
Q 2853 3084 3261 2657 
Q 3669 2231 3669 1497 
Q 3669 778 3244 343 
Q 2819 -91 2113 -91 
Q 1303 -91 875 529 
Q 447 1150 447 2328 
Q 447 3434 972 4092 
Q 1497 4750 2381 4750 
Q 2619 4750 2861 4703 
Q 3103 4656 3366 4563 
z
" transform="scale(0.015625)"/>
       </defs>
       <use xlink:href="#DejaVuSans-36"/>
       <use xlink:href="#DejaVuSans-30" x="63.623047"/>
      </g>
     </g>
    </g>
    <g id="xtick_5">
     <g id="line2d_5">
      <g>
       <use xlink:href="#m3faa90ddc9" x="336.179835" y="307.584" style="stroke: #000000; stroke-width: 0.8"/>
      </g>
     </g>
     <g id="text_5">
      <!-- 80 -->
      <g transform="translate(329.817335 322.182437) scale(0.1 -0.1)">
       <defs>
        <path id="DejaVuSans-38" d="M 2034 2216 
Q 1584 2216 1326 1975 
Q 1069 1734 1069 1313 
Q 1069 891 1326 650 
Q 1584 409 2034 409 
Q 2484 409 2743 651 
Q 3003 894 3003 1313 
Q 3003 1734 2745 1975 
Q 2488 2216 2034 2216 
z
M 1403 2484 
Q 997 2584 770 2862 
Q 544 3141 544 3541 
Q 544 4100 942 4425 
Q 1341 4750 2034 4750 
Q 2731 4750 3128 4425 
Q 3525 4100 3525 3541 
Q 3525 3141 3298 2862 
Q 3072 2584 2669 2484 
Q 3125 2378 3379 2068 
Q 3634 1759 3634 1313 
Q 3634 634 3220 271 
Q 2806 -91 2034 -91 
Q 1263 -91 848 271 
Q 434 634 434 1313 
Q 434 1759 690 2068 
Q 947 2378 1403 2484 
z
M 1172 3481 
Q 1172 3119 1398 2916 
Q 1625 2713 2034 2713 
Q 2441 2713 2670 2916 
Q 2900 3119 2900 3481 
Q 2900 3844 2670 4047 
Q 2441 4250 2034 4250 
Q 1625 4250 1398 4047 
Q 1172 3844 1172 3481 
z
" transform="scale(0.015625)"/>
       </defs>
       <use xlink:href="#DejaVuSans-38"/>
       <use xlink:href="#DejaVuSans-30" x="63.623047"/>
      </g>
     </g>
    </g>
    <g id="xtick_6">
     <g id="line2d_6">
      <g>
       <use xlink:href="#m3faa90ddc9" x="401.766612" y="307.584" style="stroke: #000000; stroke-width: 0.8"/>
      </g>
     </g>
     <g id="text_6">
      <!-- 100 -->
      <g transform="translate(392.222862 322.182437) scale(0.1 -0.1)">
       <defs>
        <path id="DejaVuSans-31" d="M 794 531 
L 1825 531 
L 1825 4091 
L 703 3866 
L 703 4441 
L 1819 4666 
L 2450 4666 
L 2450 531 
L 3481 531 
L 3481 0 
L 794 0 
L 794 531 
z
" transform="scale(0.015625)"/>
       </defs>
       <use xlink:href="#DejaVuSans-31"/>
       <use xlink:href="#DejaVuSans-30" x="63.623047"/>
       <use xlink:href="#DejaVuSans-30" x="127.246094"/>
      </g>
     </g>
    </g>
    <g id="text_7">
     <!-- Iteration -->
     <g transform="translate(214.951406 335.860562) scale(0.1 -0.1)">
      <defs>
       <path id="DejaVuSans-49" d="M 628 4666 
L 1259 4666 
L 1259 0 
L 628 0 
L 628 4666 
z
" transform="scale(0.015625)"/>
       <path id="DejaVuSans-74" d="M 1172 4494 
L 1172 3500 
L 2356 3500 
L 2356 3053 
L 1172 3053 
L 1172 1153 
Q 1172 725 1289 603 
Q 1406 481 1766 481 
L 2356 481 
L 2356 0 
L 1766 0 
Q 1100 0 847 248 
Q 594 497 594 1153 
L 594 3053 
L 172 3053 
L 172 3500 
L 594 3500 
L 594 4494 
L 1172 4494 
z
" transform="scale(0.015625)"/>
       <path id="DejaVuSans-65" d="M 3597 1894 
L 3597 1613 
L 953 1613 
Q 991 1019 1311 708 
Q 1631 397 2203 397 
Q 2534 397 2845 478 
Q 3156 559 3463 722 
L 3463 178 
Q 3153 47 2828 -22 
Q 2503 -91 2169 -91 
Q 1331 -91 842 396 
Q 353 884 353 1716 
Q 353 2575 817 3079 
Q 1281 3584 2069 3584 
Q 2775 3584 3186 3129 
Q 3597 2675 3597 1894 
z
M 3022 2063 
Q 3016 2534 2758 2815 
Q 2500 3097 2075 3097 
Q 1594 3097 1305 2825 
Q 1016 2553 972 2059 
L 3022 2063 
z
" transform="scale(0.015625)"/>
       <path id="DejaVuSans-72" d="M 2631 2963 
Q 2534 3019 2420 3045 
Q 2306 3072 2169 3072 
Q 1681 3072 1420 2755 
Q 1159 2438 1159 1844 
L 1159 0 
L 581 0 
L 581 3500 
L 1159 3500 
L 1159 2956 
Q 1341 3275 1631 3429 
Q 1922 3584 2338 3584 
Q 2397 3584 2469 3576 
Q 2541 3569 2628 3553 
L 2631 2963 
z
" transform="scale(0.015625)"/>
       <path id="DejaVuSans-61" d="M 2194 1759 
Q 1497 1759 1228 1600 
Q 959 1441 959 1056 
Q 959 750 1161 570 
Q 1363 391 1709 391 
Q 2188 391 2477 730 
Q 2766 1069 2766 1631 
L 2766 1759 
L 2194 1759 
z
M 3341 1997 
L 3341 0 
L 2766 0 
L 2766 531 
Q 2569 213 2275 61 
Q 1981 -91 1556 -91 
Q 1019 -91 701 211 
Q 384 513 384 1019 
Q 384 1609 779 1909 
Q 1175 2209 1959 2209 
L 2766 2209 
L 2766 2266 
Q 2766 2663 2505 2880 
Q 2244 3097 1772 3097 
Q 1472 3097 1187 3025 
Q 903 2953 641 2809 
L 641 3341 
Q 956 3463 1253 3523 
Q 1550 3584 1831 3584 
Q 2591 3584 2966 3190 
Q 3341 2797 3341 1997 
z
" transform="scale(0.015625)"/>
       <path id="DejaVuSans-69" d="M 603 3500 
L 1178 3500 
L 1178 0 
L 603 0 
L 603 3500 
z
M 603 4863 
L 1178 4863 
L 1178 4134 
L 603 4134 
L 603 4863 
z
" transform="scale(0.015625)"/>
       <path id="DejaVuSans-6f" d="M 1959 3097 
Q 1497 3097 1228 2736 
Q 959 2375 959 1747 
Q 959 1119 1226 758 
Q 1494 397 1959 397 
Q 2419 397 2687 759 
Q 2956 1122 2956 1747 
Q 2956 2369 2687 2733 
Q 2419 3097 1959 3097 
z
M 1959 3584 
Q 2709 3584 3137 3096 
Q 3566 2609 3566 1747 
Q 3566 888 3137 398 
Q 2709 -91 1959 -91 
Q 1206 -91 779 398 
Q 353 888 353 1747 
Q 353 2609 779 3096 
Q 1206 3584 1959 3584 
z
" transform="scale(0.015625)"/>
       <path id="DejaVuSans-6e" d="M 3513 2113 
L 3513 0 
L 2938 0 
L 2938 2094 
Q 2938 2591 2744 2837 
Q 2550 3084 2163 3084 
Q 1697 3084 1428 2787 
Q 1159 2491 1159 1978 
L 1159 0 
L 581 0 
L 581 3500 
L 1159 3500 
L 1159 2956 
Q 1366 3272 1645 3428 
Q 1925 3584 2291 3584 
Q 2894 3584 3203 3211 
Q 3513 2838 3513 2113 
z
" transform="scale(0.015625)"/>
      </defs>
      <use xlink:href="#DejaVuSans-49"/>
      <use xlink:href="#DejaVuSans-74" x="29.492188"/>
      <use xlink:href="#DejaVuSans-65" x="68.701172"/>
      <use xlink:href="#DejaVuSans-72" x="130.224609"/>
      <use xlink:href="#DejaVuSans-61" x="171.337891"/>
      <use xlink:href="#DejaVuSans-74" x="232.617188"/>
      <use xlink:href="#DejaVuSans-69" x="271.826172"/>
      <use xlink:href="#DejaVuSans-6f" x="299.609375"/>
      <use xlink:href="#DejaVuSans-6e" x="360.791016"/>
     </g>
    </g>
   </g>
   <g id="matplotlib.axis_2">
    <g id="ytick_1">
     <g id="line2d_7">
      <defs>
       <path id="m5e80da7675" d="M 0 0 
L -3.5 0 
" style="stroke: #000000; stroke-width: 0.8"/>
      </defs>
      <g>
       <use xlink:href="#m5e80da7675" x="57.6" y="279.403268" style="stroke: #000000; stroke-width: 0.8"/>
      </g>
     </g>
     <g id="text_8">
      <!-- 0.60 -->
      <g transform="translate(28.334375 283.202486) scale(0.1 -0.1)">
       <defs>
        <path id="DejaVuSans-2e" d="M 684 794 
L 1344 794 
L 1344 0 
L 684 0 
L 684 794 
z
" transform="scale(0.015625)"/>
       </defs>
       <use xlink:href="#DejaVuSans-30"/>
       <use xlink:href="#DejaVuSans-2e" x="63.623047"/>
       <use xlink:href="#DejaVuSans-36" x="95.410156"/>
       <use xlink:href="#DejaVuSans-30" x="159.033203"/>
      </g>
     </g>
    </g>
    <g id="ytick_2">
     <g id="line2d_8">
      <g>
       <use xlink:href="#m5e80da7675" x="57.6" y="246.156107" style="stroke: #000000; stroke-width: 0.8"/>
      </g>
     </g>
     <g id="text_9">
      <!-- 0.65 -->
      <g transform="translate(28.334375 249.955326) scale(0.1 -0.1)">
       <defs>
        <path id="DejaVuSans-35" d="M 691 4666 
L 3169 4666 
L 3169 4134 
L 1269 4134 
L 1269 2991 
Q 1406 3038 1543 3061 
Q 1681 3084 1819 3084 
Q 2600 3084 3056 2656 
Q 3513 2228 3513 1497 
Q 3513 744 3044 326 
Q 2575 -91 1722 -91 
Q 1428 -91 1123 -41 
Q 819 9 494 109 
L 494 744 
Q 775 591 1075 516 
Q 1375 441 1709 441 
Q 2250 441 2565 725 
Q 2881 1009 2881 1497 
Q 2881 1984 2565 2268 
Q 2250 2553 1709 2553 
Q 1456 2553 1204 2497 
Q 953 2441 691 2322 
L 691 4666 
z
" transform="scale(0.015625)"/>
       </defs>
       <use xlink:href="#DejaVuSans-30"/>
       <use xlink:href="#DejaVuSans-2e" x="63.623047"/>
       <use xlink:href="#DejaVuSans-36" x="95.410156"/>
       <use xlink:href="#DejaVuSans-35" x="159.033203"/>
      </g>
     </g>
    </g>
    <g id="ytick_3">
     <g id="line2d_9">
      <g>
       <use xlink:href="#m5e80da7675" x="57.6" y="212.908947" style="stroke: #000000; stroke-width: 0.8"/>
      </g>
     </g>
     <g id="text_10">
      <!-- 0.70 -->
      <g transform="translate(28.334375 216.708166) scale(0.1 -0.1)">
       <defs>
        <path id="DejaVuSans-37" d="M 525 4666 
L 3525 4666 
L 3525 4397 
L 1831 0 
L 1172 0 
L 2766 4134 
L 525 4134 
L 525 4666 
z
" transform="scale(0.015625)"/>
       </defs>
       <use xlink:href="#DejaVuSans-30"/>
       <use xlink:href="#DejaVuSans-2e" x="63.623047"/>
       <use xlink:href="#DejaVuSans-37" x="95.410156"/>
       <use xlink:href="#DejaVuSans-30" x="159.033203"/>
      </g>
     </g>
    </g>
    <g id="ytick_4">
     <g id="line2d_10">
      <g>
       <use xlink:href="#m5e80da7675" x="57.6" y="179.661787" style="stroke: #000000; stroke-width: 0.8"/>
      </g>
     </g>
     <g id="text_11">
      <!-- 0.75 -->
      <g transform="translate(28.334375 183.461005) scale(0.1 -0.1)">
       <use xlink:href="#DejaVuSans-30"/>
       <use xlink:href="#DejaVuSans-2e" x="63.623047"/>
       <use xlink:href="#DejaVuSans-37" x="95.410156"/>
       <use xlink:href="#DejaVuSans-35" x="159.033203"/>
      </g>
     </g>
    </g>
    <g id="ytick_5">
     <g id="line2d_11">
      <g>
       <use xlink:href="#m5e80da7675" x="57.6" y="146.414626" style="stroke: #000000; stroke-width: 0.8"/>
      </g>
     </g>
     <g id="text_12">
      <!-- 0.80 -->
      <g transform="translate(28.334375 150.213845) scale(0.1 -0.1)">
       <use xlink:href="#DejaVuSans-30"/>
       <use xlink:href="#DejaVuSans-2e" x="63.623047"/>
       <use xlink:href="#DejaVuSans-38" x="95.410156"/>
       <use xlink:href="#DejaVuSans-30" x="159.033203"/>
      </g>
     </g>
    </g>
    <g id="ytick_6">
     <g id="line2d_12">
      <g>
       <use xlink:href="#m5e80da7675" x="57.6" y="113.167466" style="stroke: #000000; stroke-width: 0.8"/>
      </g>
     </g>
     <g id="text_13">
      <!-- 0.85 -->
      <g transform="translate(28.334375 116.966685) scale(0.1 -0.1)">
       <use xlink:href="#DejaVuSans-30"/>
       <use xlink:href="#DejaVuSans-2e" x="63.623047"/>
       <use xlink:href="#DejaVuSans-38" x="95.410156"/>
       <use xlink:href="#DejaVuSans-35" x="159.033203"/>
      </g>
     </g>
    </g>
    <g id="ytick_7">
     <g id="line2d_13">
      <g>
       <use xlink:href="#m5e80da7675" x="57.6" y="79.920306" style="stroke: #000000; stroke-width: 0.8"/>
      </g>
     </g>
     <g id="text_14">
      <!-- 0.90 -->
      <g transform="translate(28.334375 83.719524) scale(0.1 -0.1)">
       <defs>
        <path id="DejaVuSans-39" d="M 703 97 
L 703 672 
Q 941 559 1184 500 
Q 1428 441 1663 441 
Q 2288 441 2617 861 
Q 2947 1281 2994 2138 
Q 2813 1869 2534 1725 
Q 2256 1581 1919 1581 
Q 1219 1581 811 2004 
Q 403 2428 403 3163 
Q 403 3881 828 4315 
Q 1253 4750 1959 4750 
Q 2769 4750 3195 4129 
Q 3622 3509 3622 2328 
Q 3622 1225 3098 567 
Q 2575 -91 1691 -91 
Q 1453 -91 1209 -44 
Q 966 3 703 97 
z
M 1959 2075 
Q 2384 2075 2632 2365 
Q 2881 2656 2881 3163 
Q 2881 3666 2632 3958 
Q 2384 4250 1959 4250 
Q 1534 4250 1286 3958 
Q 1038 3666 1038 3163 
Q 1038 2656 1286 2365 
Q 1534 2075 1959 2075 
z
" transform="scale(0.015625)"/>
       </defs>
       <use xlink:href="#DejaVuSans-30"/>
       <use xlink:href="#DejaVuSans-2e" x="63.623047"/>
       <use xlink:href="#DejaVuSans-39" x="95.410156"/>
       <use xlink:href="#DejaVuSans-30" x="159.033203"/>
      </g>
     </g>
    </g>
    <g id="ytick_8">
     <g id="line2d_14">
      <g>
       <use xlink:href="#m5e80da7675" x="57.6" y="46.673145" style="stroke: #000000; stroke-width: 0.8"/>
      </g>
     </g>
     <g id="text_15">
      <!-- 0.95 -->
      <g transform="translate(28.334375 50.472364) scale(0.1 -0.1)">
       <use xlink:href="#DejaVuSans-30"/>
       <use xlink:href="#DejaVuSans-2e" x="63.623047"/>
       <use xlink:href="#DejaVuSans-39" x="95.410156"/>
       <use xlink:href="#DejaVuSans-35" x="159.033203"/>
      </g>
     </g>
    </g>
   </g>
   <g id="line2d_15">
    <path d="M 73.832727 273.224047 
L 77.112066 295.488 
L 80.391405 269.467027 
L 83.670744 262.494479 
L 86.950083 247.305095 
L 90.229421 243.372742 
L 93.50876 230.332258 
L 96.788099 226.002085 
L 100.067438 215.652104 
L 103.346777 213.972664 
L 106.626116 205.210228 
L 109.905455 199.926536 
L 113.184793 194.244913 
L 116.464132 190.837127 
L 119.743471 185.019327 
L 123.02281 179.548851 
L 126.302149 176.043333 
L 129.581488 170.173631 
L 132.860826 167.505848 
L 136.140165 163.634786 
L 139.419504 159.659418 
L 142.698843 157.992947 
L 145.978182 154.197356 
L 149.257521 152.122047 
L 152.53686 149.880807 
L 155.816198 148.080262 
L 159.095537 144.621325 
L 162.374876 143.268663 
L 165.654215 140.350674 
L 168.933554 137.955649 
L 172.212893 136.679309 
L 175.492231 135.271262 
L 178.77157 134.176203 
L 182.050909 131.576146 
L 185.330248 129.285135 
L 188.609587 128.073665 
L 191.888926 127.656414 
L 195.168264 125.986126 
L 198.447603 124.527807 
L 201.726942 123.852395 
L 205.006281 122.414358 
L 208.28562 121.257214 
L 211.564959 119.709661 
L 214.844298 119.15346 
L 218.123636 118.276583 
L 221.402975 117.183404 
L 224.682314 115.82017 
L 227.961653 115.63418 
L 231.240992 114.562425 
L 234.520331 113.859684 
L 237.799669 113.009635 
L 241.079008 111.889614 
L 244.358347 111.912431 
L 247.637686 110.543555 
L 250.917025 110.233381 
L 254.196364 110.053311 
L 257.475702 108.893117 
L 260.755041 108.405199 
L 264.03438 108.150982 
L 267.313719 106.845277 
L 270.593058 106.087137 
L 273.872397 105.492573 
L 277.151736 105.133395 
L 280.431074 104.289823 
L 283.710413 104.60653 
L 286.989752 103.730753 
L 290.269091 103.690538 
L 293.54843 102.723995 
L 296.827769 102.161679 
L 300.107107 102.033483 
L 303.386446 101.513458 
L 306.665785 101.695882 
L 309.945124 101.163668 
L 313.224463 100.978333 
L 316.503802 100.650761 
L 319.78314 99.902943 
L 323.062479 99.859203 
L 326.341818 98.849562 
L 329.621157 98.780804 
L 332.900496 98.158256 
L 336.179835 97.898174 
L 339.459174 97.24466 
L 342.738512 97.041202 
L 346.017851 96.757007 
L 349.29719 96.33137 
L 352.576529 96.167988 
L 355.855868 95.655373 
L 359.135207 95.424934 
L 362.414545 94.991663 
L 365.693884 95.263363 
L 368.973223 94.584483 
L 372.252562 94.307796 
L 375.531901 93.914016 
L 378.81124 93.523384 
L 382.090579 93.62014 
L 385.369917 93.184237 
L 388.649256 93.12459 
L 391.928595 92.734961 
L 395.207934 92.894122 
L 398.487273 92.854603 
" clip-path="url(#pd967954558)" style="fill: none; stroke: #1f77b4; stroke-width: 1.5; stroke-linecap: square"/>
   </g>
   <g id="line2d_16">
    <path d="M 73.832727 273.810132 
L 77.112066 250.499649 
L 80.391405 210.554047 
L 83.670744 180.173543 
L 86.950083 160.680646 
L 90.229421 146.472025 
L 93.50876 133.447931 
L 96.788099 125.99092 
L 100.067438 119.264421 
L 103.346777 114.365596 
L 106.626116 109.353857 
L 109.905455 105.982603 
L 113.184793 102.444715 
L 116.464132 100.137603 
L 119.743471 97.618938 
L 123.02281 95.161289 
L 126.302149 93.92319 
L 129.581488 91.76893 
L 132.860826 90.261178 
L 136.140165 89.351101 
L 139.419504 87.902182 
L 142.698843 87.353401 
L 145.978182 85.993644 
L 149.257521 85.040862 
L 152.53686 84.495877 
L 155.816198 83.699251 
L 159.095537 82.442542 
L 162.374876 82.235131 
L 165.654215 81.121455 
L 168.933554 80.546829 
L 172.212893 80.320853 
L 175.492231 79.7198 
L 178.77157 79.294275 
L 182.050909 78.809947 
L 185.330248 78.086011 
L 188.609587 77.689245 
L 191.888926 77.575914 
L 195.168264 76.433194 
L 198.447603 76.216695 
L 201.726942 75.803263 
L 205.006281 98.326372 
L 208.28562 75.13233 
L 211.564959 73.768732 
L 214.844298 73.686476 
L 218.123636 73.343357 
L 221.402975 72.96112 
L 224.682314 72.344791 
L 227.961653 72.34213 
L 231.240992 71.553038 
L 234.520331 71.419153 
L 237.799669 71.080533 
L 241.079008 70.429152 
L 244.358347 70.489301 
L 247.637686 69.854153 
L 250.917025 69.782016 
L 254.196364 69.587699 
L 257.475702 69.326522 
L 260.755041 69.17488 
L 264.03438 68.998903 
L 267.313719 68.614125 
L 270.593058 68.381273 
L 273.872397 68.094416 
L 277.151736 67.782253 
L 280.431074 67.631344 
L 283.710413 67.710775 
L 286.989752 67.259376 
L 290.269091 67.079857 
L 293.54843 66.665288 
L 296.827769 66.587831 
L 300.107107 66.32335 
L 303.386446 66.242574 
L 306.665785 66.316788 
L 309.945124 66.071022 
L 313.224463 65.857706 
L 316.503802 65.799426 
L 319.78314 65.600385 
L 323.062479 65.473616 
L 326.341818 65.116835 
L 329.621157 65.047045 
L 332.900496 64.850321 
L 336.179835 74.555911 
L 339.459174 64.979931 
L 342.738512 64.643702 
L 346.017851 64.121049 
L 349.29719 63.905745 
L 352.576529 63.742175 
L 355.855868 63.672834 
L 359.135207 63.640413 
L 362.414545 63.342883 
L 365.693884 63.465378 
L 368.973223 63.15021 
L 372.252562 63.089538 
L 375.531901 62.985384 
L 378.81124 62.804953 
L 382.090579 62.50424 
L 385.369917 62.226845 
L 388.649256 62.23964 
L 391.928595 62.201927 
L 395.207934 61.878673 
L 398.487273 62.294437 
" clip-path="url(#pd967954558)" style="fill: none; stroke: #ff7f0e; stroke-width: 1.5; stroke-linecap: square"/>
   </g>
   <g id="line2d_17">
    <path d="M 73.832727 273.779833 
L 77.112066 216.296396 
L 80.391405 166.471382 
L 83.670744 135.455054 
L 86.950083 119.960869 
L 90.229421 108.675055 
L 93.50876 101.264543 
L 96.788099 96.413719 
L 100.067438 92.531142 
L 103.346777 90.034189 
L 106.626116 87.182177 
L 109.905455 85.065378 
L 113.184793 83.313572 
L 116.464132 82.003244 
L 119.743471 80.568143 
L 123.02281 78.945015 
L 126.302149 78.240791 
L 129.581488 77.027424 
L 132.860826 76.197611 
L 136.140165 75.362587 
L 139.419504 96.287878 
L 142.698843 73.412299 
L 145.978182 72.366439 
L 149.257521 71.975283 
L 152.53686 71.379573 
L 155.816198 70.88216 
L 159.095537 69.723258 
L 162.374876 69.437824 
L 165.654215 68.738753 
L 168.933554 68.302976 
L 172.212893 68.178085 
L 175.492231 67.557266 
L 178.77157 67.29994 
L 182.050909 66.587579 
L 185.330248 66.126575 
L 188.609587 65.919215 
L 191.888926 65.623223 
L 195.168264 64.982714 
L 198.447603 64.708105 
L 201.726942 64.451269 
L 205.006281 72.590252 
L 208.28562 63.793402 
L 211.564959 63.349385 
L 214.844298 63.19196 
L 218.123636 63.060461 
L 221.402975 62.785109 
L 224.682314 62.20404 
L 227.961653 62.249031 
L 231.240992 61.551608 
L 234.520331 61.426479 
L 237.799669 61.234115 
L 241.079008 60.815207 
L 244.358347 60.80615 
L 247.637686 60.336415 
L 250.917025 60.23436 
L 254.196364 60.096625 
L 257.475702 59.885552 
L 260.755041 59.580978 
L 264.03438 59.495332 
L 267.313719 59.089787 
L 270.593058 63.988691 
L 273.872397 58.788361 
L 277.151736 58.393433 
L 280.431074 58.234895 
L 283.710413 58.342384 
L 286.989752 58.027222 
L 290.269091 57.904514 
L 293.54843 57.58472 
L 296.827769 57.542238 
L 300.107107 57.309234 
L 303.386446 57.057194 
L 306.665785 57.130442 
L 309.945124 56.84529 
L 313.224463 56.603748 
L 316.503802 56.524709 
L 319.78314 56.445937 
L 323.062479 56.363944 
L 326.341818 55.894951 
L 329.621157 55.924841 
L 332.900496 55.803024 
L 336.179835 60.170155 
L 339.459174 55.636853 
L 342.738512 55.429908 
L 346.017851 55.121058 
L 349.29719 55.058827 
L 352.576529 54.916548 
L 355.855868 54.818162 
L 359.135207 54.781679 
L 362.414545 54.621819 
L 365.693884 54.650165 
L 368.973223 54.420635 
L 372.252562 54.393299 
L 375.531901 54.179925 
L 378.81124 54.078108 
L 382.090579 54.040111 
L 385.369917 53.898084 
L 388.649256 53.915249 
L 391.928595 53.832231 
L 395.207934 53.568 
L 398.487273 53.906577 
" clip-path="url(#pd967954558)" style="fill: none; stroke: #2ca02c; stroke-width: 1.5; stroke-linecap: square"/>
   </g>
   <g id="patch_3">
    <path d="M 57.6 307.584 
L 57.6 41.472 
" style="fill: none; stroke: #000000; stroke-width: 0.8; stroke-linejoin: miter; stroke-linecap: square"/>
   </g>
   <g id="patch_4">
    <path d="M 414.72 307.584 
L 414.72 41.472 
" style="fill: none; stroke: #000000; stroke-width: 0.8; stroke-linejoin: miter; stroke-linecap: square"/>
   </g>
   <g id="patch_5">
    <path d="M 57.6 307.584 
L 414.72 307.584 
" style="fill: none; stroke: #000000; stroke-width: 0.8; stroke-linejoin: miter; stroke-linecap: square"/>
   </g>
   <g id="patch_6">
    <path d="M 57.6 41.472 
L 414.72 41.472 
" style="fill: none; stroke: #000000; stroke-width: 0.8; stroke-linejoin: miter; stroke-linecap: square"/>
   </g>
   <g id="text_16">
    <!-- Average time series for dataset 'phishing' and metric 'accuracy' -->
    <g transform="translate(44.245313 35.472) scale(0.12 -0.12)">
     <defs>
      <path id="DejaVuSans-41" d="M 2188 4044 
L 1331 1722 
L 3047 1722 
L 2188 4044 
z
M 1831 4666 
L 2547 4666 
L 4325 0 
L 3669 0 
L 3244 1197 
L 1141 1197 
L 716 0 
L 50 0 
L 1831 4666 
z
" transform="scale(0.015625)"/>
      <path id="DejaVuSans-76" d="M 191 3500 
L 800 3500 
L 1894 563 
L 2988 3500 
L 3597 3500 
L 2284 0 
L 1503 0 
L 191 3500 
z
" transform="scale(0.015625)"/>
      <path id="DejaVuSans-67" d="M 2906 1791 
Q 2906 2416 2648 2759 
Q 2391 3103 1925 3103 
Q 1463 3103 1205 2759 
Q 947 2416 947 1791 
Q 947 1169 1205 825 
Q 1463 481 1925 481 
Q 2391 481 2648 825 
Q 2906 1169 2906 1791 
z
M 3481 434 
Q 3481 -459 3084 -895 
Q 2688 -1331 1869 -1331 
Q 1566 -1331 1297 -1286 
Q 1028 -1241 775 -1147 
L 775 -588 
Q 1028 -725 1275 -790 
Q 1522 -856 1778 -856 
Q 2344 -856 2625 -561 
Q 2906 -266 2906 331 
L 2906 616 
Q 2728 306 2450 153 
Q 2172 0 1784 0 
Q 1141 0 747 490 
Q 353 981 353 1791 
Q 353 2603 747 3093 
Q 1141 3584 1784 3584 
Q 2172 3584 2450 3431 
Q 2728 3278 2906 2969 
L 2906 3500 
L 3481 3500 
L 3481 434 
z
" transform="scale(0.015625)"/>
      <path id="DejaVuSans-20" transform="scale(0.015625)"/>
      <path id="DejaVuSans-6d" d="M 3328 2828 
Q 3544 3216 3844 3400 
Q 4144 3584 4550 3584 
Q 5097 3584 5394 3201 
Q 5691 2819 5691 2113 
L 5691 0 
L 5113 0 
L 5113 2094 
Q 5113 2597 4934 2840 
Q 4756 3084 4391 3084 
Q 3944 3084 3684 2787 
Q 3425 2491 3425 1978 
L 3425 0 
L 2847 0 
L 2847 2094 
Q 2847 2600 2669 2842 
Q 2491 3084 2119 3084 
Q 1678 3084 1418 2786 
Q 1159 2488 1159 1978 
L 1159 0 
L 581 0 
L 581 3500 
L 1159 3500 
L 1159 2956 
Q 1356 3278 1631 3431 
Q 1906 3584 2284 3584 
Q 2666 3584 2933 3390 
Q 3200 3197 3328 2828 
z
" transform="scale(0.015625)"/>
      <path id="DejaVuSans-73" d="M 2834 3397 
L 2834 2853 
Q 2591 2978 2328 3040 
Q 2066 3103 1784 3103 
Q 1356 3103 1142 2972 
Q 928 2841 928 2578 
Q 928 2378 1081 2264 
Q 1234 2150 1697 2047 
L 1894 2003 
Q 2506 1872 2764 1633 
Q 3022 1394 3022 966 
Q 3022 478 2636 193 
Q 2250 -91 1575 -91 
Q 1294 -91 989 -36 
Q 684 19 347 128 
L 347 722 
Q 666 556 975 473 
Q 1284 391 1588 391 
Q 1994 391 2212 530 
Q 2431 669 2431 922 
Q 2431 1156 2273 1281 
Q 2116 1406 1581 1522 
L 1381 1569 
Q 847 1681 609 1914 
Q 372 2147 372 2553 
Q 372 3047 722 3315 
Q 1072 3584 1716 3584 
Q 2034 3584 2315 3537 
Q 2597 3491 2834 3397 
z
" transform="scale(0.015625)"/>
      <path id="DejaVuSans-66" d="M 2375 4863 
L 2375 4384 
L 1825 4384 
Q 1516 4384 1395 4259 
Q 1275 4134 1275 3809 
L 1275 3500 
L 2222 3500 
L 2222 3053 
L 1275 3053 
L 1275 0 
L 697 0 
L 697 3053 
L 147 3053 
L 147 3500 
L 697 3500 
L 697 3744 
Q 697 4328 969 4595 
Q 1241 4863 1831 4863 
L 2375 4863 
z
" transform="scale(0.015625)"/>
      <path id="DejaVuSans-64" d="M 2906 2969 
L 2906 4863 
L 3481 4863 
L 3481 0 
L 2906 0 
L 2906 525 
Q 2725 213 2448 61 
Q 2172 -91 1784 -91 
Q 1150 -91 751 415 
Q 353 922 353 1747 
Q 353 2572 751 3078 
Q 1150 3584 1784 3584 
Q 2172 3584 2448 3432 
Q 2725 3281 2906 2969 
z
M 947 1747 
Q 947 1113 1208 752 
Q 1469 391 1925 391 
Q 2381 391 2643 752 
Q 2906 1113 2906 1747 
Q 2906 2381 2643 2742 
Q 2381 3103 1925 3103 
Q 1469 3103 1208 2742 
Q 947 2381 947 1747 
z
" transform="scale(0.015625)"/>
      <path id="DejaVuSans-27" d="M 1147 4666 
L 1147 2931 
L 616 2931 
L 616 4666 
L 1147 4666 
z
" transform="scale(0.015625)"/>
      <path id="DejaVuSans-70" d="M 1159 525 
L 1159 -1331 
L 581 -1331 
L 581 3500 
L 1159 3500 
L 1159 2969 
Q 1341 3281 1617 3432 
Q 1894 3584 2278 3584 
Q 2916 3584 3314 3078 
Q 3713 2572 3713 1747 
Q 3713 922 3314 415 
Q 2916 -91 2278 -91 
Q 1894 -91 1617 61 
Q 1341 213 1159 525 
z
M 3116 1747 
Q 3116 2381 2855 2742 
Q 2594 3103 2138 3103 
Q 1681 3103 1420 2742 
Q 1159 2381 1159 1747 
Q 1159 1113 1420 752 
Q 1681 391 2138 391 
Q 2594 391 2855 752 
Q 3116 1113 3116 1747 
z
" transform="scale(0.015625)"/>
      <path id="DejaVuSans-68" d="M 3513 2113 
L 3513 0 
L 2938 0 
L 2938 2094 
Q 2938 2591 2744 2837 
Q 2550 3084 2163 3084 
Q 1697 3084 1428 2787 
Q 1159 2491 1159 1978 
L 1159 0 
L 581 0 
L 581 4863 
L 1159 4863 
L 1159 2956 
Q 1366 3272 1645 3428 
Q 1925 3584 2291 3584 
Q 2894 3584 3203 3211 
Q 3513 2838 3513 2113 
z
" transform="scale(0.015625)"/>
      <path id="DejaVuSans-63" d="M 3122 3366 
L 3122 2828 
Q 2878 2963 2633 3030 
Q 2388 3097 2138 3097 
Q 1578 3097 1268 2742 
Q 959 2388 959 1747 
Q 959 1106 1268 751 
Q 1578 397 2138 397 
Q 2388 397 2633 464 
Q 2878 531 3122 666 
L 3122 134 
Q 2881 22 2623 -34 
Q 2366 -91 2075 -91 
Q 1284 -91 818 406 
Q 353 903 353 1747 
Q 353 2603 823 3093 
Q 1294 3584 2113 3584 
Q 2378 3584 2631 3529 
Q 2884 3475 3122 3366 
z
" transform="scale(0.015625)"/>
      <path id="DejaVuSans-75" d="M 544 1381 
L 544 3500 
L 1119 3500 
L 1119 1403 
Q 1119 906 1312 657 
Q 1506 409 1894 409 
Q 2359 409 2629 706 
Q 2900 1003 2900 1516 
L 2900 3500 
L 3475 3500 
L 3475 0 
L 2900 0 
L 2900 538 
Q 2691 219 2414 64 
Q 2138 -91 1772 -91 
Q 1169 -91 856 284 
Q 544 659 544 1381 
z
M 1991 3584 
L 1991 3584 
z
" transform="scale(0.015625)"/>
      <path id="DejaVuSans-79" d="M 2059 -325 
Q 1816 -950 1584 -1140 
Q 1353 -1331 966 -1331 
L 506 -1331 
L 506 -850 
L 844 -850 
Q 1081 -850 1212 -737 
Q 1344 -625 1503 -206 
L 1606 56 
L 191 3500 
L 800 3500 
L 1894 763 
L 2988 3500 
L 3597 3500 
L 2059 -325 
z
" transform="scale(0.015625)"/>
     </defs>
     <use xlink:href="#DejaVuSans-41"/>
     <use xlink:href="#DejaVuSans-76" x="62.533203"/>
     <use xlink:href="#DejaVuSans-65" x="121.712891"/>
     <use xlink:href="#DejaVuSans-72" x="183.236328"/>
     <use xlink:href="#DejaVuSans-61" x="224.349609"/>
     <use xlink:href="#DejaVuSans-67" x="285.628906"/>
     <use xlink:href="#DejaVuSans-65" x="349.105469"/>
     <use xlink:href="#DejaVuSans-20" x="410.628906"/>
     <use xlink:href="#DejaVuSans-74" x="442.416016"/>
     <use xlink:href="#DejaVuSans-69" x="481.625"/>
     <use xlink:href="#DejaVuSans-6d" x="509.408203"/>
     <use xlink:href="#DejaVuSans-65" x="606.820312"/>
     <use xlink:href="#DejaVuSans-20" x="668.34375"/>
     <use xlink:href="#DejaVuSans-73" x="700.130859"/>
     <use xlink:href="#DejaVuSans-65" x="752.230469"/>
     <use xlink:href="#DejaVuSans-72" x="813.753906"/>
     <use xlink:href="#DejaVuSans-69" x="854.867188"/>
     <use xlink:href="#DejaVuSans-65" x="882.650391"/>
     <use xlink:href="#DejaVuSans-73" x="944.173828"/>
     <use xlink:href="#DejaVuSans-20" x="996.273438"/>
     <use xlink:href="#DejaVuSans-66" x="1028.060547"/>
     <use xlink:href="#DejaVuSans-6f" x="1063.265625"/>
     <use xlink:href="#DejaVuSans-72" x="1124.447266"/>
     <use xlink:href="#DejaVuSans-20" x="1165.560547"/>
     <use xlink:href="#DejaVuSans-64" x="1197.347656"/>
     <use xlink:href="#DejaVuSans-61" x="1260.824219"/>
     <use xlink:href="#DejaVuSans-74" x="1322.103516"/>
     <use xlink:href="#DejaVuSans-61" x="1361.3125"/>
     <use xlink:href="#DejaVuSans-73" x="1422.591797"/>
     <use xlink:href="#DejaVuSans-65" x="1474.691406"/>
     <use xlink:href="#DejaVuSans-74" x="1536.214844"/>
     <use xlink:href="#DejaVuSans-20" x="1575.423828"/>
     <use xlink:href="#DejaVuSans-27" x="1607.210938"/>
     <use xlink:href="#DejaVuSans-70" x="1634.701172"/>
     <use xlink:href="#DejaVuSans-68" x="1698.177734"/>
     <use xlink:href="#DejaVuSans-69" x="1761.556641"/>
     <use xlink:href="#DejaVuSans-73" x="1789.339844"/>
     <use xlink:href="#DejaVuSans-68" x="1841.439453"/>
     <use xlink:href="#DejaVuSans-69" x="1904.818359"/>
     <use xlink:href="#DejaVuSans-6e" x="1932.601562"/>
     <use xlink:href="#DejaVuSans-67" x="1995.980469"/>
     <use xlink:href="#DejaVuSans-27" x="2059.457031"/>
     <use xlink:href="#DejaVuSans-20" x="2086.947266"/>
     <use xlink:href="#DejaVuSans-61" x="2118.734375"/>
     <use xlink:href="#DejaVuSans-6e" x="2180.013672"/>
     <use xlink:href="#DejaVuSans-64" x="2243.392578"/>
     <use xlink:href="#DejaVuSans-20" x="2306.869141"/>
     <use xlink:href="#DejaVuSans-6d" x="2338.65625"/>
     <use xlink:href="#DejaVuSans-65" x="2436.068359"/>
     <use xlink:href="#DejaVuSans-74" x="2497.591797"/>
     <use xlink:href="#DejaVuSans-72" x="2536.800781"/>
     <use xlink:href="#DejaVuSans-69" x="2577.914062"/>
     <use xlink:href="#DejaVuSans-63" x="2605.697266"/>
     <use xlink:href="#DejaVuSans-20" x="2660.677734"/>
     <use xlink:href="#DejaVuSans-27" x="2692.464844"/>
     <use xlink:href="#DejaVuSans-61" x="2719.955078"/>
     <use xlink:href="#DejaVuSans-63" x="2781.234375"/>
     <use xlink:href="#DejaVuSans-63" x="2836.214844"/>
     <use xlink:href="#DejaVuSans-75" x="2891.195312"/>
     <use xlink:href="#DejaVuSans-72" x="2954.574219"/>
     <use xlink:href="#DejaVuSans-61" x="2995.6875"/>
     <use xlink:href="#DejaVuSans-63" x="3056.966797"/>
     <use xlink:href="#DejaVuSans-79" x="3111.947266"/>
     <use xlink:href="#DejaVuSans-27" x="3171.126953"/>
    </g>
   </g>
   <g id="legend_1">
    <g id="patch_7">
     <path d="M 305.135625 302.584 
L 407.72 302.584 
Q 409.72 302.584 409.72 300.584 
L 409.72 257.549625 
Q 409.72 255.549625 407.72 255.549625 
L 305.135625 255.549625 
Q 303.135625 255.549625 303.135625 257.549625 
L 303.135625 300.584 
Q 303.135625 302.584 305.135625 302.584 
z
" style="fill: #ffffff; opacity: 0.8; stroke: #cccccc; stroke-linejoin: miter"/>
    </g>
    <g id="line2d_18">
     <path d="M 307.135625 263.648062 
L 317.135625 263.648062 
L 327.135625 263.648062 
" style="fill: none; stroke: #1f77b4; stroke-width: 1.5; stroke-linecap: square"/>
    </g>
    <g id="text_17">
     <!-- Batch size: 1 -->
     <g transform="translate(335.135625 267.148062) scale(0.1 -0.1)">
      <defs>
       <path id="DejaVuSans-42" d="M 1259 2228 
L 1259 519 
L 2272 519 
Q 2781 519 3026 730 
Q 3272 941 3272 1375 
Q 3272 1813 3026 2020 
Q 2781 2228 2272 2228 
L 1259 2228 
z
M 1259 4147 
L 1259 2741 
L 2194 2741 
Q 2656 2741 2882 2914 
Q 3109 3088 3109 3444 
Q 3109 3797 2882 3972 
Q 2656 4147 2194 4147 
L 1259 4147 
z
M 628 4666 
L 2241 4666 
Q 2963 4666 3353 4366 
Q 3744 4066 3744 3513 
Q 3744 3084 3544 2831 
Q 3344 2578 2956 2516 
Q 3422 2416 3680 2098 
Q 3938 1781 3938 1306 
Q 3938 681 3513 340 
Q 3088 0 2303 0 
L 628 0 
L 628 4666 
z
" transform="scale(0.015625)"/>
       <path id="DejaVuSans-7a" d="M 353 3500 
L 3084 3500 
L 3084 2975 
L 922 459 
L 3084 459 
L 3084 0 
L 275 0 
L 275 525 
L 2438 3041 
L 353 3041 
L 353 3500 
z
" transform="scale(0.015625)"/>
       <path id="DejaVuSans-3a" d="M 750 794 
L 1409 794 
L 1409 0 
L 750 0 
L 750 794 
z
M 750 3309 
L 1409 3309 
L 1409 2516 
L 750 2516 
L 750 3309 
z
" transform="scale(0.015625)"/>
      </defs>
      <use xlink:href="#DejaVuSans-42"/>
      <use xlink:href="#DejaVuSans-61" x="68.603516"/>
      <use xlink:href="#DejaVuSans-74" x="129.882812"/>
      <use xlink:href="#DejaVuSans-63" x="169.091797"/>
      <use xlink:href="#DejaVuSans-68" x="224.072266"/>
      <use xlink:href="#DejaVuSans-20" x="287.451172"/>
      <use xlink:href="#DejaVuSans-73" x="319.238281"/>
      <use xlink:href="#DejaVuSans-69" x="371.337891"/>
      <use xlink:href="#DejaVuSans-7a" x="399.121094"/>
      <use xlink:href="#DejaVuSans-65" x="451.611328"/>
      <use xlink:href="#DejaVuSans-3a" x="513.134766"/>
      <use xlink:href="#DejaVuSans-20" x="546.826172"/>
      <use xlink:href="#DejaVuSans-31" x="578.613281"/>
     </g>
    </g>
    <g id="line2d_19">
     <path d="M 307.135625 278.326188 
L 317.135625 278.326188 
L 327.135625 278.326188 
" style="fill: none; stroke: #ff7f0e; stroke-width: 1.5; stroke-linecap: square"/>
    </g>
    <g id="text_18">
     <!-- Batch size: 5 -->
     <g transform="translate(335.135625 281.826188) scale(0.1 -0.1)">
      <use xlink:href="#DejaVuSans-42"/>
      <use xlink:href="#DejaVuSans-61" x="68.603516"/>
      <use xlink:href="#DejaVuSans-74" x="129.882812"/>
      <use xlink:href="#DejaVuSans-63" x="169.091797"/>
      <use xlink:href="#DejaVuSans-68" x="224.072266"/>
      <use xlink:href="#DejaVuSans-20" x="287.451172"/>
      <use xlink:href="#DejaVuSans-73" x="319.238281"/>
      <use xlink:href="#DejaVuSans-69" x="371.337891"/>
      <use xlink:href="#DejaVuSans-7a" x="399.121094"/>
      <use xlink:href="#DejaVuSans-65" x="451.611328"/>
      <use xlink:href="#DejaVuSans-3a" x="513.134766"/>
      <use xlink:href="#DejaVuSans-20" x="546.826172"/>
      <use xlink:href="#DejaVuSans-35" x="578.613281"/>
     </g>
    </g>
    <g id="line2d_20">
     <path d="M 307.135625 293.004312 
L 317.135625 293.004312 
L 327.135625 293.004312 
" style="fill: none; stroke: #2ca02c; stroke-width: 1.5; stroke-linecap: square"/>
    </g>
    <g id="text_19">
     <!-- Batch size: 10 -->
     <g transform="translate(335.135625 296.504312) scale(0.1 -0.1)">
      <use xlink:href="#DejaVuSans-42"/>
      <use xlink:href="#DejaVuSans-61" x="68.603516"/>
      <use xlink:href="#DejaVuSans-74" x="129.882812"/>
      <use xlink:href="#DejaVuSans-63" x="169.091797"/>
      <use xlink:href="#DejaVuSans-68" x="224.072266"/>
      <use xlink:href="#DejaVuSans-20" x="287.451172"/>
      <use xlink:href="#DejaVuSans-73" x="319.238281"/>
      <use xlink:href="#DejaVuSans-69" x="371.337891"/>
      <use xlink:href="#DejaVuSans-7a" x="399.121094"/>
      <use xlink:href="#DejaVuSans-65" x="451.611328"/>
      <use xlink:href="#DejaVuSans-3a" x="513.134766"/>
      <use xlink:href="#DejaVuSans-20" x="546.826172"/>
      <use xlink:href="#DejaVuSans-31" x="578.613281"/>
      <use xlink:href="#DejaVuSans-30" x="642.236328"/>
     </g>
    </g>
   </g>
  </g>
 </g>
 <defs>
  <clipPath id="pd967954558">
   <rect x="57.6" y="41.472" width="357.12" height="266.112"/>
  </clipPath>
 </defs>
</svg>
