<?xml version="1.0" encoding="utf-8" standalone="no"?>
<!DOCTYPE svg PUBLIC "-//W3C//DTD SVG 1.1//EN"
  "http://www.w3.org/Graphics/SVG/1.1/DTD/svg11.dtd">
<svg xmlns:xlink="http://www.w3.org/1999/xlink" width="460.8pt" height="345.6pt" viewBox="0 0 460.8 345.6" xmlns="http://www.w3.org/2000/svg" version="1.1">
 <metadata>
  <rdf:RDF xmlns:dc="http://purl.org/dc/elements/1.1/" xmlns:cc="http://creativecommons.org/ns#" xmlns:rdf="http://www.w3.org/1999/02/22-rdf-syntax-ns#">
   <cc:Work>
    <dc:type rdf:resource="http://purl.org/dc/dcmitype/StillImage"/>
    <dc:date>2023-06-23T16:55:13.657031</dc:date>
    <dc:format>image/svg+xml</dc:format>
    <dc:creator>
     <cc:Agent>
      <dc:title>Matplotlib v3.7.1, https://matplotlib.org/</dc:title>
     </cc:Agent>
    </dc:creator>
   </cc:Work>
  </rdf:RDF>
 </metadata>
 <defs>
  <style type="text/css">*{stroke-linejoin: round; stroke-linecap: butt}</style>
 </defs>
 <g id="figure_1">
  <g id="patch_1">
   <path d="M 0 345.6 
L 460.8 345.6 
L 460.8 0 
L 0 0 
z
" style="fill: #ffffff"/>
  </g>
  <g id="axes_1">
   <g id="patch_2">
    <path d="M 57.6 307.584 
L 414.72 307.584 
L 414.72 41.472 
L 57.6 41.472 
z
" style="fill: #ffffff"/>
   </g>
   <g id="matplotlib.axis_1">
    <g id="xtick_1">
     <g id="line2d_1">
      <defs>
       <path id="ma661d6ebbc" d="M 0 0 
L 0 3.5 
" style="stroke: #000000; stroke-width: 0.8"/>
      </defs>
      <g>
       <use xlink:href="#ma661d6ebbc" x="73.832727" y="307.584" style="stroke: #000000; stroke-width: 0.8"/>
      </g>
     </g>
     <g id="text_1">
      <!-- 0 -->
      <g transform="translate(70.651477 322.182437) scale(0.1 -0.1)">
       <defs>
        <path id="DejaVuSans-30" d="M 2034 4250 
Q 1547 4250 1301 3770 
Q 1056 3291 1056 2328 
Q 1056 1369 1301 889 
Q 1547 409 2034 409 
Q 2525 409 2770 889 
Q 3016 1369 3016 2328 
Q 3016 3291 2770 3770 
Q 2525 4250 2034 4250 
z
M 2034 4750 
Q 2819 4750 3233 4129 
Q 3647 3509 3647 2328 
Q 3647 1150 3233 529 
Q 2819 -91 2034 -91 
Q 1250 -91 836 529 
Q 422 1150 422 2328 
Q 422 3509 836 4129 
Q 1250 4750 2034 4750 
z
" transform="scale(0.015625)"/>
       </defs>
       <use xlink:href="#DejaVuSans-30"/>
      </g>
     </g>
    </g>
    <g id="xtick_2">
     <g id="line2d_2">
      <g>
       <use xlink:href="#ma661d6ebbc" x="139.419504" y="307.584" style="stroke: #000000; stroke-width: 0.8"/>
      </g>
     </g>
     <g id="text_2">
      <!-- 20 -->
      <g transform="translate(133.057004 322.182437) scale(0.1 -0.1)">
       <defs>
        <path id="DejaVuSans-32" d="M 1228 531 
L 3431 531 
L 3431 0 
L 469 0 
L 469 531 
Q 828 903 1448 1529 
Q 2069 2156 2228 2338 
Q 2531 2678 2651 2914 
Q 2772 3150 2772 3378 
Q 2772 3750 2511 3984 
Q 2250 4219 1831 4219 
Q 1534 4219 1204 4116 
Q 875 4013 500 3803 
L 500 4441 
Q 881 4594 1212 4672 
Q 1544 4750 1819 4750 
Q 2544 4750 2975 4387 
Q 3406 4025 3406 3419 
Q 3406 3131 3298 2873 
Q 3191 2616 2906 2266 
Q 2828 2175 2409 1742 
Q 1991 1309 1228 531 
z
" transform="scale(0.015625)"/>
       </defs>
       <use xlink:href="#DejaVuSans-32"/>
       <use xlink:href="#DejaVuSans-30" x="63.623047"/>
      </g>
     </g>
    </g>
    <g id="xtick_3">
     <g id="line2d_3">
      <g>
       <use xlink:href="#ma661d6ebbc" x="205.006281" y="307.584" style="stroke: #000000; stroke-width: 0.8"/>
      </g>
     </g>
     <g id="text_3">
      <!-- 40 -->
      <g transform="translate(198.643781 322.182437) scale(0.1 -0.1)">
       <defs>
        <path id="DejaVuSans-34" d="M 2419 4116 
L 825 1625 
L 2419 1625 
L 2419 4116 
z
M 2253 4666 
L 3047 4666 
L 3047 1625 
L 3713 1625 
L 3713 1100 
L 3047 1100 
L 3047 0 
L 2419 0 
L 2419 1100 
L 313 1100 
L 313 1709 
L 2253 4666 
z
" transform="scale(0.015625)"/>
       </defs>
       <use xlink:href="#DejaVuSans-34"/>
       <use xlink:href="#DejaVuSans-30" x="63.623047"/>
      </g>
     </g>
    </g>
    <g id="xtick_4">
     <g id="line2d_4">
      <g>
       <use xlink:href="#ma661d6ebbc" x="270.593058" y="307.584" style="stroke: #000000; stroke-width: 0.8"/>
      </g>
     </g>
     <g id="text_4">
      <!-- 60 -->
      <g transform="translate(264.230558 322.182437) scale(0.1 -0.1)">
       <defs>
        <path id="DejaVuSans-36" d="M 2113 2584 
Q 1688 2584 1439 2293 
Q 1191 2003 1191 1497 
Q 1191 994 1439 701 
Q 1688 409 2113 409 
Q 2538 409 2786 701 
Q 3034 994 3034 1497 
Q 3034 2003 2786 2293 
Q 2538 2584 2113 2584 
z
M 3366 4563 
L 3366 3988 
Q 3128 4100 2886 4159 
Q 2644 4219 2406 4219 
Q 1781 4219 1451 3797 
Q 1122 3375 1075 2522 
Q 1259 2794 1537 2939 
Q 1816 3084 2150 3084 
Q 2853 3084 3261 2657 
Q 3669 2231 3669 1497 
Q 3669 778 3244 343 
Q 2819 -91 2113 -91 
Q 1303 -91 875 529 
Q 447 1150 447 2328 
Q 447 3434 972 4092 
Q 1497 4750 2381 4750 
Q 2619 4750 2861 4703 
Q 3103 4656 3366 4563 
z
" transform="scale(0.015625)"/>
       </defs>
       <use xlink:href="#DejaVuSans-36"/>
       <use xlink:href="#DejaVuSans-30" x="63.623047"/>
      </g>
     </g>
    </g>
    <g id="xtick_5">
     <g id="line2d_5">
      <g>
       <use xlink:href="#ma661d6ebbc" x="336.179835" y="307.584" style="stroke: #000000; stroke-width: 0.8"/>
      </g>
     </g>
     <g id="text_5">
      <!-- 80 -->
      <g transform="translate(329.817335 322.182437) scale(0.1 -0.1)">
       <defs>
        <path id="DejaVuSans-38" d="M 2034 2216 
Q 1584 2216 1326 1975 
Q 1069 1734 1069 1313 
Q 1069 891 1326 650 
Q 1584 409 2034 409 
Q 2484 409 2743 651 
Q 3003 894 3003 1313 
Q 3003 1734 2745 1975 
Q 2488 2216 2034 2216 
z
M 1403 2484 
Q 997 2584 770 2862 
Q 544 3141 544 3541 
Q 544 4100 942 4425 
Q 1341 4750 2034 4750 
Q 2731 4750 3128 4425 
Q 3525 4100 3525 3541 
Q 3525 3141 3298 2862 
Q 3072 2584 2669 2484 
Q 3125 2378 3379 2068 
Q 3634 1759 3634 1313 
Q 3634 634 3220 271 
Q 2806 -91 2034 -91 
Q 1263 -91 848 271 
Q 434 634 434 1313 
Q 434 1759 690 2068 
Q 947 2378 1403 2484 
z
M 1172 3481 
Q 1172 3119 1398 2916 
Q 1625 2713 2034 2713 
Q 2441 2713 2670 2916 
Q 2900 3119 2900 3481 
Q 2900 3844 2670 4047 
Q 2441 4250 2034 4250 
Q 1625 4250 1398 4047 
Q 1172 3844 1172 3481 
z
" transform="scale(0.015625)"/>
       </defs>
       <use xlink:href="#DejaVuSans-38"/>
       <use xlink:href="#DejaVuSans-30" x="63.623047"/>
      </g>
     </g>
    </g>
    <g id="xtick_6">
     <g id="line2d_6">
      <g>
       <use xlink:href="#ma661d6ebbc" x="401.766612" y="307.584" style="stroke: #000000; stroke-width: 0.8"/>
      </g>
     </g>
     <g id="text_6">
      <!-- 100 -->
      <g transform="translate(392.222862 322.182437) scale(0.1 -0.1)">
       <defs>
        <path id="DejaVuSans-31" d="M 794 531 
L 1825 531 
L 1825 4091 
L 703 3866 
L 703 4441 
L 1819 4666 
L 2450 4666 
L 2450 531 
L 3481 531 
L 3481 0 
L 794 0 
L 794 531 
z
" transform="scale(0.015625)"/>
       </defs>
       <use xlink:href="#DejaVuSans-31"/>
       <use xlink:href="#DejaVuSans-30" x="63.623047"/>
       <use xlink:href="#DejaVuSans-30" x="127.246094"/>
      </g>
     </g>
    </g>
    <g id="text_7">
     <!-- Iteration -->
     <g transform="translate(214.951406 335.860562) scale(0.1 -0.1)">
      <defs>
       <path id="DejaVuSans-49" d="M 628 4666 
L 1259 4666 
L 1259 0 
L 628 0 
L 628 4666 
z
" transform="scale(0.015625)"/>
       <path id="DejaVuSans-74" d="M 1172 4494 
L 1172 3500 
L 2356 3500 
L 2356 3053 
L 1172 3053 
L 1172 1153 
Q 1172 725 1289 603 
Q 1406 481 1766 481 
L 2356 481 
L 2356 0 
L 1766 0 
Q 1100 0 847 248 
Q 594 497 594 1153 
L 594 3053 
L 172 3053 
L 172 3500 
L 594 3500 
L 594 4494 
L 1172 4494 
z
" transform="scale(0.015625)"/>
       <path id="DejaVuSans-65" d="M 3597 1894 
L 3597 1613 
L 953 1613 
Q 991 1019 1311 708 
Q 1631 397 2203 397 
Q 2534 397 2845 478 
Q 3156 559 3463 722 
L 3463 178 
Q 3153 47 2828 -22 
Q 2503 -91 2169 -91 
Q 1331 -91 842 396 
Q 353 884 353 1716 
Q 353 2575 817 3079 
Q 1281 3584 2069 3584 
Q 2775 3584 3186 3129 
Q 3597 2675 3597 1894 
z
M 3022 2063 
Q 3016 2534 2758 2815 
Q 2500 3097 2075 3097 
Q 1594 3097 1305 2825 
Q 1016 2553 972 2059 
L 3022 2063 
z
" transform="scale(0.015625)"/>
       <path id="DejaVuSans-72" d="M 2631 2963 
Q 2534 3019 2420 3045 
Q 2306 3072 2169 3072 
Q 1681 3072 1420 2755 
Q 1159 2438 1159 1844 
L 1159 0 
L 581 0 
L 581 3500 
L 1159 3500 
L 1159 2956 
Q 1341 3275 1631 3429 
Q 1922 3584 2338 3584 
Q 2397 3584 2469 3576 
Q 2541 3569 2628 3553 
L 2631 2963 
z
" transform="scale(0.015625)"/>
       <path id="DejaVuSans-61" d="M 2194 1759 
Q 1497 1759 1228 1600 
Q 959 1441 959 1056 
Q 959 750 1161 570 
Q 1363 391 1709 391 
Q 2188 391 2477 730 
Q 2766 1069 2766 1631 
L 2766 1759 
L 2194 1759 
z
M 3341 1997 
L 3341 0 
L 2766 0 
L 2766 531 
Q 2569 213 2275 61 
Q 1981 -91 1556 -91 
Q 1019 -91 701 211 
Q 384 513 384 1019 
Q 384 1609 779 1909 
Q 1175 2209 1959 2209 
L 2766 2209 
L 2766 2266 
Q 2766 2663 2505 2880 
Q 2244 3097 1772 3097 
Q 1472 3097 1187 3025 
Q 903 2953 641 2809 
L 641 3341 
Q 956 3463 1253 3523 
Q 1550 3584 1831 3584 
Q 2591 3584 2966 3190 
Q 3341 2797 3341 1997 
z
" transform="scale(0.015625)"/>
       <path id="DejaVuSans-69" d="M 603 3500 
L 1178 3500 
L 1178 0 
L 603 0 
L 603 3500 
z
M 603 4863 
L 1178 4863 
L 1178 4134 
L 603 4134 
L 603 4863 
z
" transform="scale(0.015625)"/>
       <path id="DejaVuSans-6f" d="M 1959 3097 
Q 1497 3097 1228 2736 
Q 959 2375 959 1747 
Q 959 1119 1226 758 
Q 1494 397 1959 397 
Q 2419 397 2687 759 
Q 2956 1122 2956 1747 
Q 2956 2369 2687 2733 
Q 2419 3097 1959 3097 
z
M 1959 3584 
Q 2709 3584 3137 3096 
Q 3566 2609 3566 1747 
Q 3566 888 3137 398 
Q 2709 -91 1959 -91 
Q 1206 -91 779 398 
Q 353 888 353 1747 
Q 353 2609 779 3096 
Q 1206 3584 1959 3584 
z
" transform="scale(0.015625)"/>
       <path id="DejaVuSans-6e" d="M 3513 2113 
L 3513 0 
L 2938 0 
L 2938 2094 
Q 2938 2591 2744 2837 
Q 2550 3084 2163 3084 
Q 1697 3084 1428 2787 
Q 1159 2491 1159 1978 
L 1159 0 
L 581 0 
L 581 3500 
L 1159 3500 
L 1159 2956 
Q 1366 3272 1645 3428 
Q 1925 3584 2291 3584 
Q 2894 3584 3203 3211 
Q 3513 2838 3513 2113 
z
" transform="scale(0.015625)"/>
      </defs>
      <use xlink:href="#DejaVuSans-49"/>
      <use xlink:href="#DejaVuSans-74" x="29.492188"/>
      <use xlink:href="#DejaVuSans-65" x="68.701172"/>
      <use xlink:href="#DejaVuSans-72" x="130.224609"/>
      <use xlink:href="#DejaVuSans-61" x="171.337891"/>
      <use xlink:href="#DejaVuSans-74" x="232.617188"/>
      <use xlink:href="#DejaVuSans-69" x="271.826172"/>
      <use xlink:href="#DejaVuSans-6f" x="299.609375"/>
      <use xlink:href="#DejaVuSans-6e" x="360.791016"/>
     </g>
    </g>
   </g>
   <g id="matplotlib.axis_2">
    <g id="ytick_1">
     <g id="line2d_7">
      <defs>
       <path id="me0d3b8ed0b" d="M 0 0 
L -3.5 0 
" style="stroke: #000000; stroke-width: 0.8"/>
      </defs>
      <g>
       <use xlink:href="#me0d3b8ed0b" x="57.6" y="280.479351" style="stroke: #000000; stroke-width: 0.8"/>
      </g>
     </g>
     <g id="text_8">
      <!-- 0.5 -->
      <g transform="translate(34.696875 284.27857) scale(0.1 -0.1)">
       <defs>
        <path id="DejaVuSans-2e" d="M 684 794 
L 1344 794 
L 1344 0 
L 684 0 
L 684 794 
z
" transform="scale(0.015625)"/>
        <path id="DejaVuSans-35" d="M 691 4666 
L 3169 4666 
L 3169 4134 
L 1269 4134 
L 1269 2991 
Q 1406 3038 1543 3061 
Q 1681 3084 1819 3084 
Q 2600 3084 3056 2656 
Q 3513 2228 3513 1497 
Q 3513 744 3044 326 
Q 2575 -91 1722 -91 
Q 1428 -91 1123 -41 
Q 819 9 494 109 
L 494 744 
Q 775 591 1075 516 
Q 1375 441 1709 441 
Q 2250 441 2565 725 
Q 2881 1009 2881 1497 
Q 2881 1984 2565 2268 
Q 2250 2553 1709 2553 
Q 1456 2553 1204 2497 
Q 953 2441 691 2322 
L 691 4666 
z
" transform="scale(0.015625)"/>
       </defs>
       <use xlink:href="#DejaVuSans-30"/>
       <use xlink:href="#DejaVuSans-2e" x="63.623047"/>
       <use xlink:href="#DejaVuSans-35" x="95.410156"/>
      </g>
     </g>
    </g>
    <g id="ytick_2">
     <g id="line2d_8">
      <g>
       <use xlink:href="#me0d3b8ed0b" x="57.6" y="229.005463" style="stroke: #000000; stroke-width: 0.8"/>
      </g>
     </g>
     <g id="text_9">
      <!-- 0.6 -->
      <g transform="translate(34.696875 232.804681) scale(0.1 -0.1)">
       <use xlink:href="#DejaVuSans-30"/>
       <use xlink:href="#DejaVuSans-2e" x="63.623047"/>
       <use xlink:href="#DejaVuSans-36" x="95.410156"/>
      </g>
     </g>
    </g>
    <g id="ytick_3">
     <g id="line2d_9">
      <g>
       <use xlink:href="#me0d3b8ed0b" x="57.6" y="177.531574" style="stroke: #000000; stroke-width: 0.8"/>
      </g>
     </g>
     <g id="text_10">
      <!-- 0.7 -->
      <g transform="translate(34.696875 181.330793) scale(0.1 -0.1)">
       <defs>
        <path id="DejaVuSans-37" d="M 525 4666 
L 3525 4666 
L 3525 4397 
L 1831 0 
L 1172 0 
L 2766 4134 
L 525 4134 
L 525 4666 
z
" transform="scale(0.015625)"/>
       </defs>
       <use xlink:href="#DejaVuSans-30"/>
       <use xlink:href="#DejaVuSans-2e" x="63.623047"/>
       <use xlink:href="#DejaVuSans-37" x="95.410156"/>
      </g>
     </g>
    </g>
    <g id="ytick_4">
     <g id="line2d_10">
      <g>
       <use xlink:href="#me0d3b8ed0b" x="57.6" y="126.057686" style="stroke: #000000; stroke-width: 0.8"/>
      </g>
     </g>
     <g id="text_11">
      <!-- 0.8 -->
      <g transform="translate(34.696875 129.856905) scale(0.1 -0.1)">
       <use xlink:href="#DejaVuSans-30"/>
       <use xlink:href="#DejaVuSans-2e" x="63.623047"/>
       <use xlink:href="#DejaVuSans-38" x="95.410156"/>
      </g>
     </g>
    </g>
    <g id="ytick_5">
     <g id="line2d_11">
      <g>
       <use xlink:href="#me0d3b8ed0b" x="57.6" y="74.583798" style="stroke: #000000; stroke-width: 0.8"/>
      </g>
     </g>
     <g id="text_12">
      <!-- 0.9 -->
      <g transform="translate(34.696875 78.383017) scale(0.1 -0.1)">
       <defs>
        <path id="DejaVuSans-39" d="M 703 97 
L 703 672 
Q 941 559 1184 500 
Q 1428 441 1663 441 
Q 2288 441 2617 861 
Q 2947 1281 2994 2138 
Q 2813 1869 2534 1725 
Q 2256 1581 1919 1581 
Q 1219 1581 811 2004 
Q 403 2428 403 3163 
Q 403 3881 828 4315 
Q 1253 4750 1959 4750 
Q 2769 4750 3195 4129 
Q 3622 3509 3622 2328 
Q 3622 1225 3098 567 
Q 2575 -91 1691 -91 
Q 1453 -91 1209 -44 
Q 966 3 703 97 
z
M 1959 2075 
Q 2384 2075 2632 2365 
Q 2881 2656 2881 3163 
Q 2881 3666 2632 3958 
Q 2384 4250 1959 4250 
Q 1534 4250 1286 3958 
Q 1038 3666 1038 3163 
Q 1038 2656 1286 2365 
Q 1534 2075 1959 2075 
z
" transform="scale(0.015625)"/>
       </defs>
       <use xlink:href="#DejaVuSans-30"/>
       <use xlink:href="#DejaVuSans-2e" x="63.623047"/>
       <use xlink:href="#DejaVuSans-39" x="95.410156"/>
      </g>
     </g>
    </g>
   </g>
   <g id="line2d_12">
    <path d="M 73.832727 226.195814 
L 77.112066 277.916351 
L 80.391405 288.974987 
L 83.670744 290.330673 
L 86.950083 291.271922 
L 90.229421 288.350195 
L 93.50876 285.618445 
L 96.788099 284.434839 
L 100.067438 283.917166 
L 103.346777 278.901793 
L 106.626116 277.432104 
L 109.905455 273.374166 
L 113.184793 271.146397 
L 116.464132 267.98885 
L 119.743471 265.488715 
L 123.02281 262.506021 
L 126.302149 259.248803 
L 129.581488 257.311348 
L 132.860826 254.261867 
L 136.140165 251.818143 
L 139.419504 249.186288 
L 142.698843 247.555948 
L 145.978182 244.843004 
L 149.257521 241.749945 
L 152.53686 239.560363 
L 155.816198 237.808771 
L 159.095537 234.599478 
L 162.374876 233.062784 
L 165.654215 231.527008 
L 168.933554 228.837969 
L 172.212893 226.507889 
L 175.492231 224.487443 
L 178.77157 222.152874 
L 182.050909 220.292893 
L 185.330248 217.897101 
L 188.609587 216.29415 
L 191.888926 213.386268 
L 195.168264 211.95043 
L 198.447603 210.052896 
L 201.726942 208.818098 
L 205.006281 206.798689 
L 208.28562 204.537176 
L 211.564959 203.621018 
L 214.844298 202.09748 
L 218.123636 200.012756 
L 221.402975 198.559332 
L 224.682314 197.0729 
L 227.961653 195.66978 
L 231.240992 194.872823 
L 234.520331 193.111072 
L 237.799669 191.59872 
L 241.079008 189.985915 
L 244.358347 188.507843 
L 247.637686 186.768794 
L 250.917025 186.106667 
L 254.196364 184.704145 
L 257.475702 182.91849 
L 260.755041 181.993988 
L 264.03438 180.963483 
L 267.313719 179.355086 
L 270.593058 178.169482 
L 273.872397 177.013019 
L 277.151736 175.631668 
L 280.431074 174.455452 
L 283.710413 173.784348 
L 286.989752 173.017378 
L 290.269091 171.359194 
L 293.54843 170.952296 
L 296.827769 169.331995 
L 300.107107 167.939203 
L 303.386446 167.050562 
L 306.665785 166.4721 
L 309.945124 165.17403 
L 313.224463 164.343239 
L 316.503802 163.393702 
L 319.78314 162.857247 
L 323.062479 161.465548 
L 326.341818 160.471615 
L 329.621157 159.429032 
L 332.900496 159.281494 
L 336.179835 158.462942 
L 339.459174 157.347817 
L 342.738512 156.846994 
L 346.017851 155.445307 
L 349.29719 154.509001 
L 352.576529 154.391383 
L 355.855868 153.113212 
L 359.135207 152.281056 
L 362.414545 151.761645 
L 365.693884 151.365308 
L 368.973223 150.905137 
L 372.252562 150.083092 
L 375.531901 149.094216 
L 378.81124 148.505669 
L 382.090579 147.764176 
L 385.369917 147.011328 
L 388.649256 146.602019 
L 391.928595 145.57695 
L 395.207934 145.183002 
L 398.487273 144.921993 
" clip-path="url(#p55cc50f64e)" style="fill: none; stroke: #1f77b4; stroke-width: 1.5; stroke-linecap: square"/>
   </g>
   <g id="line2d_13">
    <path d="M 73.832727 226.415205 
L 77.112066 295.488 
L 80.391405 286.609508 
L 83.670744 273.766183 
L 86.950083 261.198114 
L 90.229421 250.281184 
L 93.50876 238.686284 
L 96.788099 228.996199 
L 100.067438 219.795524 
L 103.346777 211.22556 
L 106.626116 203.741862 
L 109.905455 196.819207 
L 113.184793 190.257286 
L 116.464132 184.033147 
L 119.743471 177.908196 
L 123.02281 172.360682 
L 126.302149 167.452973 
L 129.581488 162.610564 
L 132.860826 158.256342 
L 136.140165 154.382361 
L 139.419504 150.612488 
L 142.698843 147.27244 
L 145.978182 143.796015 
L 149.257521 141.120633 
L 152.53686 138.20777 
L 155.816198 135.297598 
L 159.095537 132.833276 
L 162.374876 129.982101 
L 165.654215 127.481853 
L 168.933554 125.060059 
L 172.212893 122.830462 
L 175.492231 121.10043 
L 178.77157 118.809765 
L 182.050909 116.756925 
L 185.330248 114.728911 
L 188.609587 113.365934 
L 191.888926 111.631876 
L 195.168264 110.396433 
L 198.447603 224.664291 
L 201.726942 160.693043 
L 205.006281 131.507335 
L 208.28562 119.817776 
L 211.564959 113.285937 
L 214.844298 108.94494 
L 218.123636 105.72183 
L 221.402975 103.40801 
L 224.682314 101.524752 
L 227.961653 100.130524 
L 231.240992 98.657016 
L 234.520331 97.443688 
L 237.799669 96.492029 
L 241.079008 95.490012 
L 244.358347 94.309187 
L 247.637686 93.720645 
L 250.917025 92.741616 
L 254.196364 91.871107 
L 257.475702 90.805338 
L 260.755041 90.518662 
L 264.03438 89.929225 
L 267.313719 88.564991 
L 270.593058 87.948192 
L 273.872397 87.413384 
L 277.151736 86.655206 
L 280.431074 85.896754 
L 283.710413 85.037961 
L 286.989752 84.623046 
L 290.269091 83.921766 
L 293.54843 83.25688 
L 296.827769 82.974593 
L 300.107107 82.492275 
L 303.386446 81.974194 
L 306.665785 81.108173 
L 309.945124 80.76003 
L 313.224463 79.85543 
L 316.503802 79.487594 
L 319.78314 79.149006 
L 323.062479 78.512063 
L 326.341818 78.278045 
L 329.621157 174.10102 
L 332.900496 96.519267 
L 336.179835 86.278982 
L 339.459174 82.254106 
L 342.738512 79.717089 
L 346.017851 78.206285 
L 349.29719 77.01104 
L 352.576529 76.114322 
L 355.855868 75.320446 
L 359.135207 74.690725 
L 362.414545 74.156127 
L 365.693884 73.770023 
L 368.973223 73.395188 
L 372.252562 72.950822 
L 375.531901 72.670547 
L 378.81124 72.404036 
L 382.090579 71.891952 
L 385.369917 71.834747 
L 388.649256 71.369149 
L 391.928595 71.044412 
L 395.207934 70.656584 
L 398.487273 70.623496 
" clip-path="url(#p55cc50f64e)" style="fill: none; stroke: #ff7f0e; stroke-width: 1.5; stroke-linecap: square"/>
   </g>
   <g id="line2d_14">
    <path d="M 73.832727 226.412769 
L 77.112066 285.721457 
L 80.391405 265.259431 
L 83.670744 244.390625 
L 86.950083 227.907261 
L 90.229421 212.830919 
L 93.50876 198.971906 
L 96.788099 187.024448 
L 100.067438 176.74727 
L 103.346777 166.956275 
L 106.626116 158.592365 
L 109.905455 150.906739 
L 113.184793 144.407418 
L 116.464132 137.89484 
L 119.743471 132.133724 
L 123.02281 126.737629 
L 126.302149 121.879533 
L 129.581488 117.368767 
L 132.860826 113.02321 
L 136.140165 225.248097 
L 139.419504 132.085093 
L 142.698843 112.674509 
L 145.978182 104.321322 
L 149.257521 99.875041 
L 152.53686 96.864718 
L 155.816198 94.058223 
L 159.095537 91.925829 
L 162.374876 90.011467 
L 165.654215 88.223969 
L 168.933554 86.917165 
L 172.212893 85.201157 
L 175.492231 83.72549 
L 178.77157 82.203138 
L 182.050909 80.530875 
L 185.330248 79.635906 
L 188.609587 78.349176 
L 191.888926 76.906828 
L 195.168264 75.760234 
L 198.447603 74.801475 
L 201.726942 169.080487 
L 205.006281 82.564867 
L 208.28562 75.858486 
L 211.564959 72.969289 
L 214.844298 71.385256 
L 218.123636 70.25696 
L 221.402975 69.562889 
L 224.682314 68.608488 
L 227.961653 68.064903 
L 231.240992 67.312302 
L 234.520331 66.663724 
L 237.799669 66.221113 
L 241.079008 65.735978 
L 244.358347 65.472436 
L 247.637686 64.931668 
L 250.917025 64.52191 
L 254.196364 64.305846 
L 257.475702 64.01524 
L 260.755041 63.683023 
L 264.03438 63.636234 
L 267.313719 125.873602 
L 270.593058 69.054118 
L 273.872397 64.850441 
L 277.151736 63.305668 
L 280.431074 62.128206 
L 283.710413 61.488232 
L 286.989752 61.227927 
L 290.269091 60.775456 
L 293.54843 60.490309 
L 296.827769 60.233734 
L 300.107107 59.938837 
L 303.386446 59.870467 
L 306.665785 59.623197 
L 309.945124 59.208051 
L 313.224463 58.818167 
L 316.503802 58.819811 
L 319.78314 58.684332 
L 323.062479 58.19399 
L 326.341818 57.819002 
L 329.621157 57.749046 
L 332.900496 91.052749 
L 336.179835 61.898034 
L 339.459174 58.882467 
L 342.738512 57.416666 
L 346.017851 56.836957 
L 349.29719 56.438874 
L 352.576529 55.867995 
L 355.855868 55.762296 
L 359.135207 55.414935 
L 362.414545 55.211497 
L 365.693884 54.86388 
L 368.973223 54.756372 
L 372.252562 54.545638 
L 375.531901 54.434058 
L 378.81124 54.408895 
L 382.090579 54.157455 
L 385.369917 54.066162 
L 388.649256 54.003483 
L 391.928595 53.871605 
L 395.207934 53.568 
L 398.487273 73.880749 
" clip-path="url(#p55cc50f64e)" style="fill: none; stroke: #2ca02c; stroke-width: 1.5; stroke-linecap: square"/>
   </g>
   <g id="patch_3">
    <path d="M 57.6 307.584 
L 57.6 41.472 
" style="fill: none; stroke: #000000; stroke-width: 0.8; stroke-linejoin: miter; stroke-linecap: square"/>
   </g>
   <g id="patch_4">
    <path d="M 414.72 307.584 
L 414.72 41.472 
" style="fill: none; stroke: #000000; stroke-width: 0.8; stroke-linejoin: miter; stroke-linecap: square"/>
   </g>
   <g id="patch_5">
    <path d="M 57.6 307.584 
L 414.72 307.584 
" style="fill: none; stroke: #000000; stroke-width: 0.8; stroke-linejoin: miter; stroke-linecap: square"/>
   </g>
   <g id="patch_6">
    <path d="M 57.6 41.472 
L 414.72 41.472 
" style="fill: none; stroke: #000000; stroke-width: 0.8; stroke-linejoin: miter; stroke-linecap: square"/>
   </g>
   <g id="text_13">
    <!-- Average time series for dataset 'texture' and metric 'weighted_f1-score' -->
    <g transform="translate(20.189063 35.472) scale(0.12 -0.12)">
     <defs>
      <path id="DejaVuSans-41" d="M 2188 4044 
L 1331 1722 
L 3047 1722 
L 2188 4044 
z
M 1831 4666 
L 2547 4666 
L 4325 0 
L 3669 0 
L 3244 1197 
L 1141 1197 
L 716 0 
L 50 0 
L 1831 4666 
z
" transform="scale(0.015625)"/>
      <path id="DejaVuSans-76" d="M 191 3500 
L 800 3500 
L 1894 563 
L 2988 3500 
L 3597 3500 
L 2284 0 
L 1503 0 
L 191 3500 
z
" transform="scale(0.015625)"/>
      <path id="DejaVuSans-67" d="M 2906 1791 
Q 2906 2416 2648 2759 
Q 2391 3103 1925 3103 
Q 1463 3103 1205 2759 
Q 947 2416 947 1791 
Q 947 1169 1205 825 
Q 1463 481 1925 481 
Q 2391 481 2648 825 
Q 2906 1169 2906 1791 
z
M 3481 434 
Q 3481 -459 3084 -895 
Q 2688 -1331 1869 -1331 
Q 1566 -1331 1297 -1286 
Q 1028 -1241 775 -1147 
L 775 -588 
Q 1028 -725 1275 -790 
Q 1522 -856 1778 -856 
Q 2344 -856 2625 -561 
Q 2906 -266 2906 331 
L 2906 616 
Q 2728 306 2450 153 
Q 2172 0 1784 0 
Q 1141 0 747 490 
Q 353 981 353 1791 
Q 353 2603 747 3093 
Q 1141 3584 1784 3584 
Q 2172 3584 2450 3431 
Q 2728 3278 2906 2969 
L 2906 3500 
L 3481 3500 
L 3481 434 
z
" transform="scale(0.015625)"/>
      <path id="DejaVuSans-20" transform="scale(0.015625)"/>
      <path id="DejaVuSans-6d" d="M 3328 2828 
Q 3544 3216 3844 3400 
Q 4144 3584 4550 3584 
Q 5097 3584 5394 3201 
Q 5691 2819 5691 2113 
L 5691 0 
L 5113 0 
L 5113 2094 
Q 5113 2597 4934 2840 
Q 4756 3084 4391 3084 
Q 3944 3084 3684 2787 
Q 3425 2491 3425 1978 
L 3425 0 
L 2847 0 
L 2847 2094 
Q 2847 2600 2669 2842 
Q 2491 3084 2119 3084 
Q 1678 3084 1418 2786 
Q 1159 2488 1159 1978 
L 1159 0 
L 581 0 
L 581 3500 
L 1159 3500 
L 1159 2956 
Q 1356 3278 1631 3431 
Q 1906 3584 2284 3584 
Q 2666 3584 2933 3390 
Q 3200 3197 3328 2828 
z
" transform="scale(0.015625)"/>
      <path id="DejaVuSans-73" d="M 2834 3397 
L 2834 2853 
Q 2591 2978 2328 3040 
Q 2066 3103 1784 3103 
Q 1356 3103 1142 2972 
Q 928 2841 928 2578 
Q 928 2378 1081 2264 
Q 1234 2150 1697 2047 
L 1894 2003 
Q 2506 1872 2764 1633 
Q 3022 1394 3022 966 
Q 3022 478 2636 193 
Q 2250 -91 1575 -91 
Q 1294 -91 989 -36 
Q 684 19 347 128 
L 347 722 
Q 666 556 975 473 
Q 1284 391 1588 391 
Q 1994 391 2212 530 
Q 2431 669 2431 922 
Q 2431 1156 2273 1281 
Q 2116 1406 1581 1522 
L 1381 1569 
Q 847 1681 609 1914 
Q 372 2147 372 2553 
Q 372 3047 722 3315 
Q 1072 3584 1716 3584 
Q 2034 3584 2315 3537 
Q 2597 3491 2834 3397 
z
" transform="scale(0.015625)"/>
      <path id="DejaVuSans-66" d="M 2375 4863 
L 2375 4384 
L 1825 4384 
Q 1516 4384 1395 4259 
Q 1275 4134 1275 3809 
L 1275 3500 
L 2222 3500 
L 2222 3053 
L 1275 3053 
L 1275 0 
L 697 0 
L 697 3053 
L 147 3053 
L 147 3500 
L 697 3500 
L 697 3744 
Q 697 4328 969 4595 
Q 1241 4863 1831 4863 
L 2375 4863 
z
" transform="scale(0.015625)"/>
      <path id="DejaVuSans-64" d="M 2906 2969 
L 2906 4863 
L 3481 4863 
L 3481 0 
L 2906 0 
L 2906 525 
Q 2725 213 2448 61 
Q 2172 -91 1784 -91 
Q 1150 -91 751 415 
Q 353 922 353 1747 
Q 353 2572 751 3078 
Q 1150 3584 1784 3584 
Q 2172 3584 2448 3432 
Q 2725 3281 2906 2969 
z
M 947 1747 
Q 947 1113 1208 752 
Q 1469 391 1925 391 
Q 2381 391 2643 752 
Q 2906 1113 2906 1747 
Q 2906 2381 2643 2742 
Q 2381 3103 1925 3103 
Q 1469 3103 1208 2742 
Q 947 2381 947 1747 
z
" transform="scale(0.015625)"/>
      <path id="DejaVuSans-27" d="M 1147 4666 
L 1147 2931 
L 616 2931 
L 616 4666 
L 1147 4666 
z
" transform="scale(0.015625)"/>
      <path id="DejaVuSans-78" d="M 3513 3500 
L 2247 1797 
L 3578 0 
L 2900 0 
L 1881 1375 
L 863 0 
L 184 0 
L 1544 1831 
L 300 3500 
L 978 3500 
L 1906 2253 
L 2834 3500 
L 3513 3500 
z
" transform="scale(0.015625)"/>
      <path id="DejaVuSans-75" d="M 544 1381 
L 544 3500 
L 1119 3500 
L 1119 1403 
Q 1119 906 1312 657 
Q 1506 409 1894 409 
Q 2359 409 2629 706 
Q 2900 1003 2900 1516 
L 2900 3500 
L 3475 3500 
L 3475 0 
L 2900 0 
L 2900 538 
Q 2691 219 2414 64 
Q 2138 -91 1772 -91 
Q 1169 -91 856 284 
Q 544 659 544 1381 
z
M 1991 3584 
L 1991 3584 
z
" transform="scale(0.015625)"/>
      <path id="DejaVuSans-63" d="M 3122 3366 
L 3122 2828 
Q 2878 2963 2633 3030 
Q 2388 3097 2138 3097 
Q 1578 3097 1268 2742 
Q 959 2388 959 1747 
Q 959 1106 1268 751 
Q 1578 397 2138 397 
Q 2388 397 2633 464 
Q 2878 531 3122 666 
L 3122 134 
Q 2881 22 2623 -34 
Q 2366 -91 2075 -91 
Q 1284 -91 818 406 
Q 353 903 353 1747 
Q 353 2603 823 3093 
Q 1294 3584 2113 3584 
Q 2378 3584 2631 3529 
Q 2884 3475 3122 3366 
z
" transform="scale(0.015625)"/>
      <path id="DejaVuSans-77" d="M 269 3500 
L 844 3500 
L 1563 769 
L 2278 3500 
L 2956 3500 
L 3675 769 
L 4391 3500 
L 4966 3500 
L 4050 0 
L 3372 0 
L 2619 2869 
L 1863 0 
L 1184 0 
L 269 3500 
z
" transform="scale(0.015625)"/>
      <path id="DejaVuSans-68" d="M 3513 2113 
L 3513 0 
L 2938 0 
L 2938 2094 
Q 2938 2591 2744 2837 
Q 2550 3084 2163 3084 
Q 1697 3084 1428 2787 
Q 1159 2491 1159 1978 
L 1159 0 
L 581 0 
L 581 4863 
L 1159 4863 
L 1159 2956 
Q 1366 3272 1645 3428 
Q 1925 3584 2291 3584 
Q 2894 3584 3203 3211 
Q 3513 2838 3513 2113 
z
" transform="scale(0.015625)"/>
      <path id="DejaVuSans-5f" d="M 3263 -1063 
L 3263 -1509 
L -63 -1509 
L -63 -1063 
L 3263 -1063 
z
" transform="scale(0.015625)"/>
      <path id="DejaVuSans-2d" d="M 313 2009 
L 1997 2009 
L 1997 1497 
L 313 1497 
L 313 2009 
z
" transform="scale(0.015625)"/>
     </defs>
     <use xlink:href="#DejaVuSans-41"/>
     <use xlink:href="#DejaVuSans-76" x="62.533203"/>
     <use xlink:href="#DejaVuSans-65" x="121.712891"/>
     <use xlink:href="#DejaVuSans-72" x="183.236328"/>
     <use xlink:href="#DejaVuSans-61" x="224.349609"/>
     <use xlink:href="#DejaVuSans-67" x="285.628906"/>
     <use xlink:href="#DejaVuSans-65" x="349.105469"/>
     <use xlink:href="#DejaVuSans-20" x="410.628906"/>
     <use xlink:href="#DejaVuSans-74" x="442.416016"/>
     <use xlink:href="#DejaVuSans-69" x="481.625"/>
     <use xlink:href="#DejaVuSans-6d" x="509.408203"/>
     <use xlink:href="#DejaVuSans-65" x="606.820312"/>
     <use xlink:href="#DejaVuSans-20" x="668.34375"/>
     <use xlink:href="#DejaVuSans-73" x="700.130859"/>
     <use xlink:href="#DejaVuSans-65" x="752.230469"/>
     <use xlink:href="#DejaVuSans-72" x="813.753906"/>
     <use xlink:href="#DejaVuSans-69" x="854.867188"/>
     <use xlink:href="#DejaVuSans-65" x="882.650391"/>
     <use xlink:href="#DejaVuSans-73" x="944.173828"/>
     <use xlink:href="#DejaVuSans-20" x="996.273438"/>
     <use xlink:href="#DejaVuSans-66" x="1028.060547"/>
     <use xlink:href="#DejaVuSans-6f" x="1063.265625"/>
     <use xlink:href="#DejaVuSans-72" x="1124.447266"/>
     <use xlink:href="#DejaVuSans-20" x="1165.560547"/>
     <use xlink:href="#DejaVuSans-64" x="1197.347656"/>
     <use xlink:href="#DejaVuSans-61" x="1260.824219"/>
     <use xlink:href="#DejaVuSans-74" x="1322.103516"/>
     <use xlink:href="#DejaVuSans-61" x="1361.3125"/>
     <use xlink:href="#DejaVuSans-73" x="1422.591797"/>
     <use xlink:href="#DejaVuSans-65" x="1474.691406"/>
     <use xlink:href="#DejaVuSans-74" x="1536.214844"/>
     <use xlink:href="#DejaVuSans-20" x="1575.423828"/>
     <use xlink:href="#DejaVuSans-27" x="1607.210938"/>
     <use xlink:href="#DejaVuSans-74" x="1634.701172"/>
     <use xlink:href="#DejaVuSans-65" x="1673.910156"/>
     <use xlink:href="#DejaVuSans-78" x="1733.683594"/>
     <use xlink:href="#DejaVuSans-74" x="1792.863281"/>
     <use xlink:href="#DejaVuSans-75" x="1832.072266"/>
     <use xlink:href="#DejaVuSans-72" x="1895.451172"/>
     <use xlink:href="#DejaVuSans-65" x="1934.314453"/>
     <use xlink:href="#DejaVuSans-27" x="1995.837891"/>
     <use xlink:href="#DejaVuSans-20" x="2023.328125"/>
     <use xlink:href="#DejaVuSans-61" x="2055.115234"/>
     <use xlink:href="#DejaVuSans-6e" x="2116.394531"/>
     <use xlink:href="#DejaVuSans-64" x="2179.773438"/>
     <use xlink:href="#DejaVuSans-20" x="2243.25"/>
     <use xlink:href="#DejaVuSans-6d" x="2275.037109"/>
     <use xlink:href="#DejaVuSans-65" x="2372.449219"/>
     <use xlink:href="#DejaVuSans-74" x="2433.972656"/>
     <use xlink:href="#DejaVuSans-72" x="2473.181641"/>
     <use xlink:href="#DejaVuSans-69" x="2514.294922"/>
     <use xlink:href="#DejaVuSans-63" x="2542.078125"/>
     <use xlink:href="#DejaVuSans-20" x="2597.058594"/>
     <use xlink:href="#DejaVuSans-27" x="2628.845703"/>
     <use xlink:href="#DejaVuSans-77" x="2656.335938"/>
     <use xlink:href="#DejaVuSans-65" x="2738.123047"/>
     <use xlink:href="#DejaVuSans-69" x="2799.646484"/>
     <use xlink:href="#DejaVuSans-67" x="2827.429688"/>
     <use xlink:href="#DejaVuSans-68" x="2890.90625"/>
     <use xlink:href="#DejaVuSans-74" x="2954.285156"/>
     <use xlink:href="#DejaVuSans-65" x="2993.494141"/>
     <use xlink:href="#DejaVuSans-64" x="3055.017578"/>
     <use xlink:href="#DejaVuSans-5f" x="3118.494141"/>
     <use xlink:href="#DejaVuSans-66" x="3168.494141"/>
     <use xlink:href="#DejaVuSans-31" x="3203.699219"/>
     <use xlink:href="#DejaVuSans-2d" x="3267.322266"/>
     <use xlink:href="#DejaVuSans-73" x="3303.40625"/>
     <use xlink:href="#DejaVuSans-63" x="3355.505859"/>
     <use xlink:href="#DejaVuSans-6f" x="3410.486328"/>
     <use xlink:href="#DejaVuSans-72" x="3471.667969"/>
     <use xlink:href="#DejaVuSans-65" x="3510.53125"/>
     <use xlink:href="#DejaVuSans-27" x="3572.054688"/>
    </g>
   </g>
   <g id="legend_1">
    <g id="patch_7">
     <path d="M 305.135625 302.584 
L 407.72 302.584 
Q 409.72 302.584 409.72 300.584 
L 409.72 257.549625 
Q 409.72 255.549625 407.72 255.549625 
L 305.135625 255.549625 
Q 303.135625 255.549625 303.135625 257.549625 
L 303.135625 300.584 
Q 303.135625 302.584 305.135625 302.584 
z
" style="fill: #ffffff; opacity: 0.8; stroke: #cccccc; stroke-linejoin: miter"/>
    </g>
    <g id="line2d_15">
     <path d="M 307.135625 263.648062 
L 317.135625 263.648062 
L 327.135625 263.648062 
" style="fill: none; stroke: #1f77b4; stroke-width: 1.5; stroke-linecap: square"/>
    </g>
    <g id="text_14">
     <!-- Batch size: 1 -->
     <g transform="translate(335.135625 267.148062) scale(0.1 -0.1)">
      <defs>
       <path id="DejaVuSans-42" d="M 1259 2228 
L 1259 519 
L 2272 519 
Q 2781 519 3026 730 
Q 3272 941 3272 1375 
Q 3272 1813 3026 2020 
Q 2781 2228 2272 2228 
L 1259 2228 
z
M 1259 4147 
L 1259 2741 
L 2194 2741 
Q 2656 2741 2882 2914 
Q 3109 3088 3109 3444 
Q 3109 3797 2882 3972 
Q 2656 4147 2194 4147 
L 1259 4147 
z
M 628 4666 
L 2241 4666 
Q 2963 4666 3353 4366 
Q 3744 4066 3744 3513 
Q 3744 3084 3544 2831 
Q 3344 2578 2956 2516 
Q 3422 2416 3680 2098 
Q 3938 1781 3938 1306 
Q 3938 681 3513 340 
Q 3088 0 2303 0 
L 628 0 
L 628 4666 
z
" transform="scale(0.015625)"/>
       <path id="DejaVuSans-7a" d="M 353 3500 
L 3084 3500 
L 3084 2975 
L 922 459 
L 3084 459 
L 3084 0 
L 275 0 
L 275 525 
L 2438 3041 
L 353 3041 
L 353 3500 
z
" transform="scale(0.015625)"/>
       <path id="DejaVuSans-3a" d="M 750 794 
L 1409 794 
L 1409 0 
L 750 0 
L 750 794 
z
M 750 3309 
L 1409 3309 
L 1409 2516 
L 750 2516 
L 750 3309 
z
" transform="scale(0.015625)"/>
      </defs>
      <use xlink:href="#DejaVuSans-42"/>
      <use xlink:href="#DejaVuSans-61" x="68.603516"/>
      <use xlink:href="#DejaVuSans-74" x="129.882812"/>
      <use xlink:href="#DejaVuSans-63" x="169.091797"/>
      <use xlink:href="#DejaVuSans-68" x="224.072266"/>
      <use xlink:href="#DejaVuSans-20" x="287.451172"/>
      <use xlink:href="#DejaVuSans-73" x="319.238281"/>
      <use xlink:href="#DejaVuSans-69" x="371.337891"/>
      <use xlink:href="#DejaVuSans-7a" x="399.121094"/>
      <use xlink:href="#DejaVuSans-65" x="451.611328"/>
      <use xlink:href="#DejaVuSans-3a" x="513.134766"/>
      <use xlink:href="#DejaVuSans-20" x="546.826172"/>
      <use xlink:href="#DejaVuSans-31" x="578.613281"/>
     </g>
    </g>
    <g id="line2d_16">
     <path d="M 307.135625 278.326188 
L 317.135625 278.326188 
L 327.135625 278.326188 
" style="fill: none; stroke: #ff7f0e; stroke-width: 1.5; stroke-linecap: square"/>
    </g>
    <g id="text_15">
     <!-- Batch size: 5 -->
     <g transform="translate(335.135625 281.826188) scale(0.1 -0.1)">
      <use xlink:href="#DejaVuSans-42"/>
      <use xlink:href="#DejaVuSans-61" x="68.603516"/>
      <use xlink:href="#DejaVuSans-74" x="129.882812"/>
      <use xlink:href="#DejaVuSans-63" x="169.091797"/>
      <use xlink:href="#DejaVuSans-68" x="224.072266"/>
      <use xlink:href="#DejaVuSans-20" x="287.451172"/>
      <use xlink:href="#DejaVuSans-73" x="319.238281"/>
      <use xlink:href="#DejaVuSans-69" x="371.337891"/>
      <use xlink:href="#DejaVuSans-7a" x="399.121094"/>
      <use xlink:href="#DejaVuSans-65" x="451.611328"/>
      <use xlink:href="#DejaVuSans-3a" x="513.134766"/>
      <use xlink:href="#DejaVuSans-20" x="546.826172"/>
      <use xlink:href="#DejaVuSans-35" x="578.613281"/>
     </g>
    </g>
    <g id="line2d_17">
     <path d="M 307.135625 293.004312 
L 317.135625 293.004312 
L 327.135625 293.004312 
" style="fill: none; stroke: #2ca02c; stroke-width: 1.5; stroke-linecap: square"/>
    </g>
    <g id="text_16">
     <!-- Batch size: 10 -->
     <g transform="translate(335.135625 296.504312) scale(0.1 -0.1)">
      <use xlink:href="#DejaVuSans-42"/>
      <use xlink:href="#DejaVuSans-61" x="68.603516"/>
      <use xlink:href="#DejaVuSans-74" x="129.882812"/>
      <use xlink:href="#DejaVuSans-63" x="169.091797"/>
      <use xlink:href="#DejaVuSans-68" x="224.072266"/>
      <use xlink:href="#DejaVuSans-20" x="287.451172"/>
      <use xlink:href="#DejaVuSans-73" x="319.238281"/>
      <use xlink:href="#DejaVuSans-69" x="371.337891"/>
      <use xlink:href="#DejaVuSans-7a" x="399.121094"/>
      <use xlink:href="#DejaVuSans-65" x="451.611328"/>
      <use xlink:href="#DejaVuSans-3a" x="513.134766"/>
      <use xlink:href="#DejaVuSans-20" x="546.826172"/>
      <use xlink:href="#DejaVuSans-31" x="578.613281"/>
      <use xlink:href="#DejaVuSans-30" x="642.236328"/>
     </g>
    </g>
   </g>
  </g>
 </g>
 <defs>
  <clipPath id="p55cc50f64e">
   <rect x="57.6" y="41.472" width="357.12" height="266.112"/>
  </clipPath>
 </defs>
</svg>
